<svg width="138" height="50" viewBox="0 0 138 50" fill="none" xmlns="http://www.w3.org/2000/svg">
<path d="M14.144 36.1941C12.928 36.1941 11.952 35.9381 11.216 35.4261C10.496 34.8981 9.968 34.1381 9.632 33.1461C9.312 32.1541 9.152 30.9621 9.152 29.5701V23.0661C9.152 21.6421 9.296 20.4341 9.584 19.4421C9.888 18.4341 10.416 17.6661 11.168 17.1381C11.936 16.6101 13 16.3461 14.36 16.3461C15.576 16.3461 16.552 16.5541 17.288 16.9701C18.04 17.3701 18.584 17.9941 18.92 18.8421C19.256 19.6741 19.424 20.7301 19.424 22.0101V22.7301H16.88V22.1301C16.88 21.2821 16.824 20.5941 16.712 20.0661C16.6 19.5221 16.368 19.1221 16.016 18.8661C15.68 18.5941 15.144 18.4581 14.408 18.4581C13.608 18.4581 13.024 18.6421 12.656 19.0101C12.304 19.3781 12.08 19.8821 11.984 20.5221C11.904 21.1461 11.864 21.8581 11.864 22.6581V29.8581C11.864 30.7861 11.928 31.5621 12.056 32.1861C12.2 32.8101 12.464 33.2741 12.848 33.5781C13.232 33.8821 13.776 34.0341 14.48 34.0341C15.184 34.0341 15.728 33.8661 16.112 33.5301C16.496 33.1941 16.76 32.6981 16.904 32.0421C17.048 31.3861 17.12 30.5701 17.12 29.5941V28.2501H14.648V26.3301H19.568V35.9541H17.864L17.6 33.7221C17.344 34.4421 16.944 35.0341 16.4 35.4981C15.856 35.9621 15.104 36.1941 14.144 36.1941ZM27.3238 36.1701C26.0118 36.1701 24.9638 35.9141 24.1798 35.4021C23.3958 34.8901 22.8358 34.1621 22.4998 33.2181C22.1638 32.2581 21.9958 31.1381 21.9958 29.8581V22.4901C21.9958 21.2101 22.1638 20.1141 22.4998 19.2021C22.8518 18.2741 23.4118 17.5701 24.1798 17.0901C24.9638 16.5941 26.0118 16.3461 27.3238 16.3461C28.6358 16.3461 29.6758 16.5941 30.4438 17.0901C31.2118 17.5861 31.7638 18.2901 32.0998 19.2021C32.4518 20.1141 32.6278 21.2101 32.6278 22.4901V29.8821C32.6278 31.1461 32.4518 32.2501 32.0998 33.1941C31.7638 34.1381 31.2118 34.8741 30.4438 35.4021C29.6758 35.9141 28.6358 36.1701 27.3238 36.1701ZM27.3238 34.0341C28.0438 34.0341 28.5878 33.8901 28.9558 33.6021C29.3238 33.2981 29.5718 32.8821 29.6998 32.3541C29.8278 31.8101 29.8918 31.1781 29.8918 30.4581V21.9381C29.8918 21.2181 29.8278 20.6021 29.6998 20.0901C29.5718 19.5621 29.3238 19.1621 28.9558 18.8901C28.5878 18.6021 28.0438 18.4581 27.3238 18.4581C26.6038 18.4581 26.0518 18.6021 25.6678 18.8901C25.2998 19.1621 25.0518 19.5621 24.9238 20.0901C24.7958 20.6021 24.7318 21.2181 24.7318 21.9381V30.4581C24.7318 31.1781 24.7958 31.8101 24.9238 32.3541C25.0518 32.8821 25.2998 33.2981 25.6678 33.6021C26.0518 33.8901 26.6038 34.0341 27.3238 34.0341ZM40.7776 35.9541V16.5141H45.2416C46.1216 16.5141 46.8816 16.6101 47.5216 16.8021C48.1776 16.9941 48.7216 17.2901 49.1536 17.6901C49.5856 18.0901 49.9056 18.6021 50.1136 19.2261C50.3216 19.8341 50.4256 20.5541 50.4256 21.3861C50.4256 22.1861 50.3216 22.8821 50.1136 23.4741C49.9216 24.0501 49.6176 24.5061 49.2016 24.8421C48.8016 25.1781 48.2816 25.3941 47.6416 25.4901C48.4256 25.6661 49.0576 25.9701 49.5376 26.4021C50.0176 26.8181 50.3696 27.3621 50.5936 28.0341C50.8336 28.6901 50.9536 29.4821 50.9536 30.4101C50.9536 31.2421 50.8576 32.0021 50.6656 32.6901C50.4736 33.3781 50.1696 33.9621 49.7536 34.4421C49.3536 34.9221 48.8336 35.2981 48.1936 35.5701C47.5696 35.8261 46.8256 35.9541 45.9616 35.9541H40.7776ZM43.4896 34.0101H45.3136C46.5296 34.0101 47.3376 33.7301 47.7376 33.1701C48.1536 32.5941 48.3616 31.6741 48.3616 30.4101C48.3616 29.5941 48.2496 28.9141 48.0256 28.3701C47.8176 27.8101 47.4736 27.3941 46.9936 27.1221C46.5296 26.8341 45.8976 26.6901 45.0976 26.6901H43.4896V34.0101ZM43.4896 24.6261H45.0976C45.8656 24.6261 46.4656 24.5221 46.8976 24.3141C47.3296 24.0901 47.6336 23.7381 47.8096 23.2581C47.9856 22.7781 48.0736 22.1541 48.0736 21.3861C48.0736 20.4901 47.9376 19.8421 47.6656 19.4421C47.3936 19.0421 46.9696 18.7941 46.3936 18.6981C45.8176 18.5861 45.0656 18.5301 44.1376 18.5301H43.4896V24.6261ZM52.3076 35.9541L56.4356 16.5141H59.0516L63.2036 35.9541H60.6356L59.7476 31.0581H55.7876L54.8516 35.9541H52.3076ZM56.1476 29.1141H59.3876L57.7556 20.3541L56.1476 29.1141ZM69.9543 36.1701C68.5783 36.1701 67.5063 35.8821 66.7383 35.3061C65.9863 34.7301 65.4583 33.9541 65.1543 32.9781C64.8663 32.0021 64.7223 30.9141 64.7223 29.7141V22.8501C64.7223 21.5381 64.8663 20.3941 65.1543 19.4181C65.4583 18.4421 65.9863 17.6901 66.7383 17.1621C67.5063 16.6181 68.5783 16.3461 69.9543 16.3461C71.1703 16.3461 72.1303 16.5701 72.8343 17.0181C73.5543 17.4661 74.0663 18.1061 74.3703 18.9381C74.6903 19.7701 74.8503 20.7701 74.8503 21.9381V23.4741H72.2823V22.1061C72.2823 21.3861 72.2423 20.7541 72.1623 20.2101C72.0983 19.6501 71.9063 19.2181 71.5863 18.9141C71.2663 18.6101 70.7303 18.4581 69.9783 18.4581C69.2103 18.4581 68.6503 18.6261 68.2983 18.9621C67.9463 19.2821 67.7143 19.7461 67.6023 20.3541C67.5063 20.9461 67.4583 21.6421 67.4583 22.4421V30.1461C67.4583 31.1221 67.5383 31.8981 67.6983 32.4741C67.8583 33.0341 68.1223 33.4341 68.4903 33.6741C68.8583 33.9141 69.3543 34.0341 69.9783 34.0341C70.7143 34.0341 71.2423 33.8741 71.5623 33.5541C71.8823 33.2181 72.0823 32.7621 72.1623 32.1861C72.2423 31.6101 72.2823 30.9381 72.2823 30.1701V28.7301H74.8503V30.1701C74.8503 31.3541 74.7063 32.4021 74.4183 33.3141C74.1303 34.2101 73.6343 34.9141 72.9303 35.4261C72.2263 35.9221 71.2343 36.1701 69.9543 36.1701ZM77.4339 35.9541V16.5141H80.1459V25.6821L84.6099 16.5141H87.1299L83.2899 25.0821L87.7539 35.9541H85.1139L81.3939 26.8341L80.1459 29.0901V35.9541H77.4339Z" fill="white"/>
<path d="M96.8379 21.315L124.911 21.315C127.208 21.315 129.07 23.1771 129.07 25.4741L129.07 31.1927C129.07 33.4896 127.208 35.3517 124.911 35.3517L102.557 35.3517" stroke="white" stroke-width="2.08134" stroke-linejoin="round"/>
<path d="M102.037 15.0765C99.6004 17.5128 98.2344 18.8787 95.7982 21.315L102.037 27.5535" stroke="white" stroke-width="2.08134" stroke-linejoin="round"/>
</svg>
