<svg xmlns="http://www.w3.org/2000/svg" xmlns:xlink="http://www.w3.org/1999/xlink" width="1080" zoomAndPan="magnify" viewBox="0 0 810 809.999993" height="1080" preserveAspectRatio="xMidYMid meet" version="1.0"><defs><clipPath id="14b817f667"><path d="M 0 91 L 810 91 L 810 809.773438 L 0 809.773438 Z M 0 91 " clip-rule="nonzero"/></clipPath></defs><g clip-path="url(#14b817f667)"><path fill="#000000" d="M 809.933594 809.359375 L 0 809.359375 C 0 809.359375 0.292969 793.632812 10.011719 774.203125 C 10.011719 774.203125 17.789062 751.867188 16.808594 732.433594 C 16.808594 732.433594 25.546875 606.144531 111.070312 582.828125 C 111.070312 582.828125 129.742188 577.621094 136.226562 574.058594 C 136.226562 574.058594 143.035156 569.519531 166.671875 568.882812 C 166.671875 568.882812 219.152344 560.132812 242.804688 550.105469 L 303.386719 528.402344 L 305.65625 497.964844 C 305.65625 497.964844 286.21875 481.441406 281.679688 454.566406 C 277.136719 427.6875 267.417969 404.695312 267.417969 404.695312 C 267.417969 404.695312 260.296875 415.703125 253.488281 396.597656 C 253.488281 396.597656 245.382812 375.546875 244.09375 316.929688 C 244.09375 316.929688 234.328125 269.441406 234.328125 233.976562 C 234.328125 233.976562 230.929688 227.65625 218.777344 236.410156 C 206.625 245.164062 213.910156 240.785156 213.910156 240.785156 C 213.910156 240.785156 217.519531 233.0625 222.695312 228.195312 C 222.695312 228.195312 209.417969 222.039062 198.390625 243.414062 C 198.390625 243.414062 206.167969 190.625 244.714844 170.539062 C 244.714844 170.539062 235.324219 169.886719 230.78125 173.773438 C 230.78125 173.773438 246.039062 145.621094 272.027344 142.46875 C 272.027344 142.46875 268.675781 138.46875 260.589844 140.085938 C 260.589844 140.085938 288.457031 101.550781 347.734375 102.511719 C 347.734375 102.511719 346.117188 97.972656 339.957031 96.03125 C 339.957031 96.03125 348.714844 86.96875 386.609375 95.703125 C 386.609375 95.703125 407.988281 83.390625 442.011719 103.476562 C 442.011719 103.476562 434.890625 102.1875 430.351562 106.074219 C 430.351562 106.074219 451.40625 101.53125 490.28125 130.679688 C 490.28125 130.679688 483.792969 127.757812 479.582031 129.699219 C 479.582031 129.699219 512.296875 149.132812 525.902344 123.21875 C 525.902344 123.21875 526.558594 135.855469 518.128906 144.265625 C 518.128906 144.265625 526.882812 147.1875 530.445312 143.9375 C 530.445312 143.9375 530.769531 159.484375 516.839844 162.40625 C 516.839844 162.40625 527.539062 168.238281 526.230469 180.546875 C 526.230469 180.546875 515.53125 171.484375 506.792969 173.101562 C 506.792969 173.101562 529.464844 182.492188 532.714844 208.730469 C 532.714844 208.730469 523.960938 194.804688 515.546875 195.457031 C 515.546875 195.457031 530.132812 199.34375 527.539062 238.859375 C 527.539062 238.859375 525.921875 275.453125 523.648438 300.078125 C 523.648438 300.078125 552.480469 321.777344 515.546875 383.957031 C 515.546875 383.957031 498.707031 403.390625 495.457031 386.882812 C 495.457031 386.882812 488.335938 426.070312 489.953125 438.054688 L 490.605469 517.398438 C 490.605469 517.398438 497.726562 541.367188 532.714844 553.664062 C 532.714844 553.664062 640.925781 599.011719 647.394531 605.492188 C 647.394531 605.492188 668.125 613.265625 675.898438 613.917969 C 675.898438 613.917969 783.457031 637.234375 797.0625 736.335938 C 797.0625 736.335938 800.949219 766.773438 802.894531 771.964844 C 802.976562 771.949219 807.828125 785.878906 809.933594 809.359375 Z M 809.933594 809.359375 " fill-opacity="1" fill-rule="nonzero"/></g><path fill="#ffffff" d="M 395.886719 382.113281 L 356.128906 382.113281 L 355.574219 379.566406 C 355.476562 379.125 353.171875 368.398438 354.96875 352.703125 C 356.015625 343.527344 358.253906 334.53125 361.632812 325.957031 C 365.847656 315.246094 371.859375 305.1875 379.46875 296.058594 L 379.488281 296.042969 C 379.535156 295.976562 384.910156 289.660156 390.363281 282.769531 C 400.507812 269.933594 401.570312 266.976562 401.683594 266.519531 L 401.796875 266.03125 L 402.058594 265.589844 C 402.175781 265.394531 413.949219 245.734375 408.984375 228.441406 C 406.632812 220.246094 400.800781 213.746094 391.65625 209.140625 C 391.117188 208.910156 384.515625 206.121094 374.359375 205.808594 C 368.183594 205.613281 361.894531 206.347656 355.703125 207.996094 C 347.929688 210.070312 340.234375 213.597656 332.851562 218.464844 L 329.539062 220.652344 L 316.550781 188.550781 L 318.886719 187.113281 C 319.558594 186.703125 335.695312 176.921875 357.550781 171.550781 C 370.488281 168.382812 382.71875 167.4375 393.925781 168.742188 C 408.070312 170.390625 420.582031 175.648438 431.117188 184.371094 C 431.820312 184.941406 442.027344 193.382812 448.496094 208.863281 C 452.351562 218.089844 454.066406 227.902344 453.609375 238.042969 C 453.039062 250.617188 449.101562 263.679688 441.914062 276.890625 L 441.847656 277.003906 L 441.785156 277.117188 C 441.375 277.753906 431.542969 292.695312 424.144531 301.089844 L 423.996094 301.253906 C 423.898438 301.351562 414.113281 311.132812 405.6875 325.582031 C 400.785156 333.976562 397.289062 342.285156 395.3125 350.273438 C 392.863281 360.101562 392.71875 369.472656 394.871094 378.128906 Z M 381.414062 463.480469 C 365.652344 463.480469 352.84375 450.660156 352.84375 434.921875 C 352.84375 419.164062 365.667969 406.363281 381.414062 406.363281 C 397.175781 406.363281 409.980469 419.179688 409.980469 434.921875 C 409.980469 450.660156 397.160156 463.480469 381.414062 463.480469 Z M 381.414062 463.480469 " fill-opacity="1" fill-rule="nonzero"/></svg>