<svg width="90" height="60" viewBox="0 0 90 60" fill="none" xmlns="http://www.w3.org/2000/svg">
<g clip-path="url(#clip0_391_733)">
<rect width="90" height="60" fill="black"/>
<path d="M38.5909 37.3636V36.3409C38.5909 33.9972 38.7756 32.1293 39.1449 30.7372C39.5142 29.3452 40.0611 28.2301 40.7855 27.392C41.5099 26.5398 42.3977 25.7727 43.4489 25.0909C44.358 24.4943 45.1676 23.919 45.8778 23.3651C46.6023 22.8111 47.1705 22.2216 47.5824 21.5966C48.0085 20.9716 48.2216 20.2614 48.2216 19.4659C48.2216 18.7557 48.0511 18.1307 47.7102 17.5909C47.3693 17.0511 46.9077 16.6321 46.3253 16.3338C45.7429 16.0355 45.0966 15.8864 44.3864 15.8864C43.6193 15.8864 42.9091 16.0639 42.2557 16.419C41.6165 16.7741 41.098 17.2642 40.7003 17.8892C40.3168 18.5142 40.125 19.2386 40.125 20.0625H29.2159C29.2443 16.9375 29.9545 14.402 31.3466 12.456C32.7386 10.4957 34.5852 9.06108 36.8864 8.15199C39.1875 7.22869 41.7159 6.76704 44.4716 6.76704C47.5114 6.76704 50.2244 7.21449 52.6108 8.10938C54.9972 8.99006 56.8793 10.3253 58.2571 12.1151C59.6349 13.8906 60.3239 16.1136 60.3239 18.7841C60.3239 20.5028 60.0256 22.0156 59.429 23.3224C58.8466 24.6151 58.0298 25.7585 56.9787 26.7528C55.9418 27.733 54.7273 28.6278 53.3352 29.4375C52.3125 30.0341 51.4531 30.652 50.7571 31.2912C50.0611 31.9162 49.5355 32.6335 49.1804 33.4432C48.8253 34.2386 48.6477 35.2045 48.6477 36.3409V37.3636H38.5909ZM43.7898 51.6818C42.142 51.6818 40.7287 51.1065 39.5497 49.956C38.3849 48.7912 37.8097 47.3778 37.8239 45.7159C37.8097 44.0966 38.3849 42.7116 39.5497 41.5611C40.7287 40.4105 42.142 39.8352 43.7898 39.8352C45.3523 39.8352 46.7301 40.4105 47.9233 41.5611C49.1307 42.7116 49.7415 44.0966 49.7557 45.7159C49.7415 46.8239 49.4503 47.8324 48.8821 48.7415C48.3281 49.6364 47.6037 50.3537 46.7088 50.8935C45.8139 51.419 44.8409 51.6818 43.7898 51.6818Z" fill="white"/>
</g>
<defs>
<clipPath id="clip0_391_733">
<rect width="90" height="60" fill="white"/>
</clipPath>
</defs>
</svg>
