<svg width="77" height="32" viewBox="0 0 77 32" fill="none" xmlns="http://www.w3.org/2000/svg">
<rect width="77" height="32" rx="4" fill="url(#paint0_linear_241_835)"/>
<path d="M17 17H23V15H17H15H9V17H15H17Z" fill="white"/>
<path d="M39.8418 21H37.7158L37.7295 19.6396H39.8418C40.457 19.6396 40.972 19.5052 41.3867 19.2363C41.806 18.9674 42.1204 18.5824 42.3301 18.0811C42.5443 17.5798 42.6514 16.9827 42.6514 16.29V15.75C42.6514 15.2122 42.5898 14.736 42.4668 14.3213C42.3483 13.9066 42.1706 13.5579 41.9336 13.2754C41.7012 12.9928 41.4141 12.7786 41.0723 12.6328C40.735 12.487 40.3454 12.4141 39.9033 12.4141H37.6748V11.0469H39.9033C40.5641 11.0469 41.168 11.1585 41.7148 11.3818C42.2617 11.6006 42.7334 11.9173 43.1299 12.332C43.5309 12.7467 43.8385 13.2435 44.0527 13.8223C44.2669 14.401 44.374 15.0482 44.374 15.7637V16.29C44.374 17.0055 44.2669 17.6527 44.0527 18.2314C43.8385 18.8102 43.5309 19.307 43.1299 19.7217C42.7288 20.1318 42.2503 20.4486 41.6943 20.6719C41.1429 20.8906 40.5254 21 39.8418 21ZM38.666 11.0469V21H36.9502V11.0469H38.666ZM53.8613 19.6396V21H48.5771V19.6396H53.8613ZM49.0625 11.0469V21H47.3467V11.0469H49.0625ZM53.1709 15.2031V16.543H48.5771V15.2031H53.1709ZM53.8271 11.0469V12.4141H48.5771V11.0469H53.8271ZM62.7471 19.6396V21H57.75V19.6396H62.7471ZM58.2285 11.0469V21H56.5127V11.0469H58.2285Z" fill="white"/>
<defs>
<linearGradient id="paint0_linear_241_835" x1="38.5" y1="0" x2="38.5" y2="32" gradientUnits="userSpaceOnUse">
<stop stop-color="#BF1616"/>
<stop offset="0.744165" stop-color="#AE0F0F"/>
</linearGradient>
</defs>
</svg>
