<svg width="264" height="48" viewBox="0 0 264 48" fill="none" xmlns="http://www.w3.org/2000/svg">
<rect width="264" height="48" rx="6" fill="#FEE500"/>
<g clip-path="url(#clip0_406_741)">
<path opacity="0.902" fill-rule="evenodd" clip-rule="evenodd" d="M66.5 15.944C61.79 15.944 57.5 19.73 57.5 22.933C57.5 25.333 59.058 27.45 61.431 28.708L60.433 32.374C60.344 32.699 60.713 32.957 60.996 32.77L65.373 29.865C65.742 29.901 66.118 29.922 66.5 29.922C71.47 29.922 75.5 26.793 75.5 22.933C75.5 19.73 71.47 15.944 66.5 15.944Z" fill="black"/>
</g>
<path d="M86.2405 27.666H89.648V29H84.5875V18.9225H86.2405V27.666ZM94.4959 29.1305C93.7419 29.1305 93.0604 28.9613 92.4514 28.623C91.8424 28.275 91.3639 27.7917 91.0159 27.173C90.6679 26.5447 90.4939 25.8197 90.4939 24.998C90.4939 24.186 90.6727 23.4658 91.0304 22.8375C91.388 22.2092 91.8762 21.7258 92.4949 21.3875C93.1135 21.0492 93.8047 20.88 94.5684 20.88C95.332 20.88 96.0232 21.0492 96.6419 21.3875C97.2605 21.7258 97.7487 22.2092 98.1064 22.8375C98.464 23.4658 98.6429 24.186 98.6429 24.998C98.6429 25.81 98.4592 26.5302 98.0919 27.1585C97.7245 27.7868 97.2219 28.275 96.5839 28.623C95.9555 28.9613 95.2595 29.1305 94.4959 29.1305ZM94.4959 27.695C94.9212 27.695 95.3175 27.5935 95.6849 27.3905C96.0619 27.1875 96.3664 26.883 96.5984 26.477C96.8304 26.071 96.9464 25.578 96.9464 24.998C96.9464 24.418 96.8352 23.9298 96.6129 23.5335C96.3905 23.1275 96.0957 22.823 95.7284 22.62C95.361 22.417 94.9647 22.3155 94.5394 22.3155C94.114 22.3155 93.7177 22.417 93.3504 22.62C92.9927 22.823 92.7075 23.1275 92.4949 23.5335C92.2822 23.9298 92.1759 24.418 92.1759 24.998C92.1759 25.8583 92.3934 26.5253 92.8284 26.999C93.273 27.463 93.8289 27.695 94.4959 27.695ZM103.496 20.88C104.115 20.88 104.661 21.0057 105.134 21.257C105.618 21.4987 105.995 21.8032 106.265 22.1705V21.0105H107.933V29.1305C107.933 29.8652 107.778 30.5177 107.469 31.088C107.16 31.668 106.71 32.1223 106.12 32.451C105.54 32.7797 104.844 32.944 104.032 32.944C102.95 32.944 102.051 32.6878 101.335 32.1755C100.62 31.6728 100.214 30.9865 100.117 30.1165H101.756C101.882 30.5322 102.147 30.8657 102.553 31.117C102.969 31.378 103.462 31.5085 104.032 31.5085C104.699 31.5085 105.236 31.3055 105.642 30.8995C106.058 30.4935 106.265 29.9038 106.265 29.1305V27.7965C105.985 28.1735 105.603 28.4925 105.12 28.7535C104.646 29.0048 104.105 29.1305 103.496 29.1305C102.8 29.1305 102.162 28.9565 101.582 28.6085C101.012 28.2508 100.557 27.7578 100.219 27.1295C99.8903 26.4915 99.726 25.7713 99.726 24.969C99.726 24.1667 99.8903 23.4562 100.219 22.8375C100.557 22.2188 101.012 21.7403 101.582 21.402C102.162 21.054 102.8 20.88 103.496 20.88ZM106.265 24.998C106.265 24.447 106.149 23.9685 105.917 23.5625C105.695 23.1565 105.4 22.8472 105.033 22.6345C104.666 22.4218 104.269 22.3155 103.844 22.3155C103.419 22.3155 103.022 22.4218 102.655 22.6345C102.288 22.8375 101.988 23.142 101.756 23.548C101.534 23.9443 101.422 24.418 101.422 24.969C101.422 25.52 101.534 26.0033 101.756 26.419C101.988 26.8347 102.288 27.1537 102.655 27.376C103.032 27.5887 103.428 27.695 103.844 27.695C104.269 27.695 104.666 27.5887 105.033 27.376C105.4 27.1633 105.695 26.854 105.917 26.448C106.149 26.0323 106.265 25.549 106.265 24.998ZM110.945 19.952C110.645 19.952 110.394 19.8505 110.191 19.6475C109.988 19.4445 109.887 19.1932 109.887 18.8935C109.887 18.5938 109.988 18.3425 110.191 18.1395C110.394 17.9365 110.645 17.835 110.945 17.835C111.235 17.835 111.482 17.9365 111.685 18.1395C111.888 18.3425 111.989 18.5938 111.989 18.8935C111.989 19.1932 111.888 19.4445 111.685 19.6475C111.482 19.8505 111.235 19.952 110.945 19.952ZM111.757 21.0105V29H110.104V21.0105H111.757ZM117.958 20.88C118.587 20.88 119.147 21.0105 119.64 21.2715C120.143 21.5325 120.535 21.9192 120.815 22.4315C121.095 22.9438 121.235 23.5625 121.235 24.2875V29H119.597V24.534C119.597 23.8187 119.418 23.2725 119.06 22.8955C118.703 22.5088 118.215 22.3155 117.596 22.3155C116.977 22.3155 116.484 22.5088 116.117 22.8955C115.759 23.2725 115.58 23.8187 115.58 24.534V29H113.927V21.0105H115.58V21.924C115.851 21.5953 116.194 21.3392 116.61 21.1555C117.035 20.9718 117.485 20.88 117.958 20.88ZM137.84 21.0105L135.361 29H133.621L132.011 23.0985L130.402 29H128.662L126.168 21.0105H127.85L129.517 27.434L131.214 21.0105H132.939L134.563 27.405L136.216 21.0105H137.84ZM139.917 19.952C139.617 19.952 139.366 19.8505 139.163 19.6475C138.96 19.4445 138.858 19.1932 138.858 18.8935C138.858 18.5938 138.96 18.3425 139.163 18.1395C139.366 17.9365 139.617 17.835 139.917 17.835C140.207 17.835 140.453 17.9365 140.656 18.1395C140.859 18.3425 140.961 18.5938 140.961 18.8935C140.961 19.1932 140.859 19.4445 140.656 19.6475C140.453 19.8505 140.207 19.952 139.917 19.952ZM140.729 21.0105V29H139.076V21.0105H140.729ZM144.828 22.359V26.7815C144.828 27.0812 144.895 27.2987 145.031 27.434C145.176 27.5597 145.417 27.6225 145.756 27.6225H146.771V29H145.466C144.721 29 144.151 28.826 143.755 28.478C143.358 28.13 143.16 27.5645 143.16 26.7815V22.359H142.218V21.0105H143.16V19.024H144.828V21.0105H146.771V22.359H144.828ZM152.427 20.88C153.036 20.88 153.577 21.0105 154.051 21.2715C154.534 21.5325 154.911 21.9192 155.182 22.4315C155.462 22.9438 155.602 23.5625 155.602 24.2875V29H153.964V24.534C153.964 23.8187 153.785 23.2725 153.427 22.8955C153.069 22.5088 152.581 22.3155 151.963 22.3155C151.344 22.3155 150.851 22.5088 150.484 22.8955C150.126 23.2725 149.947 23.8187 149.947 24.534V29H148.294V18.27H149.947V21.9385C150.227 21.6002 150.58 21.3392 151.006 21.1555C151.441 20.9718 151.914 20.88 152.427 20.88ZM167.031 29L163.13 24.4905V29H161.477V18.9225H163.13V23.519L167.045 18.9225H169.119L164.74 23.9685L169.191 29H167.031ZM170.102 24.969C170.102 24.1667 170.266 23.4562 170.595 22.8375C170.933 22.2188 171.388 21.7403 171.958 21.402C172.538 21.054 173.176 20.88 173.872 20.88C174.5 20.88 175.046 21.0057 175.51 21.257C175.984 21.4987 176.361 21.8032 176.641 22.1705V21.0105H178.309V29H176.641V27.811C176.361 28.188 175.979 28.5022 175.496 28.7535C175.013 29.0048 174.462 29.1305 173.843 29.1305C173.157 29.1305 172.528 28.9565 171.958 28.6085C171.388 28.2508 170.933 27.7578 170.595 27.1295C170.266 26.4915 170.102 25.7713 170.102 24.969ZM176.641 24.998C176.641 24.447 176.525 23.9685 176.293 23.5625C176.071 23.1565 175.776 22.8472 175.409 22.6345C175.042 22.4218 174.645 22.3155 174.22 22.3155C173.795 22.3155 173.398 22.4218 173.031 22.6345C172.664 22.8375 172.364 23.142 172.132 23.548C171.91 23.9443 171.798 24.418 171.798 24.969C171.798 25.52 171.91 26.0033 172.132 26.419C172.364 26.8347 172.664 27.1537 173.031 27.376C173.408 27.5887 173.804 27.695 174.22 27.695C174.645 27.695 175.042 27.5887 175.409 27.376C175.776 27.1633 176.071 26.854 176.293 26.448C176.525 26.0323 176.641 25.549 176.641 24.998ZM183.641 25.0125L187.324 29H185.091L182.133 25.5635V29H180.48V18.27H182.133V24.505L185.033 21.0105H187.324L183.641 25.0125ZM187.958 24.969C187.958 24.1667 188.122 23.4562 188.451 22.8375C188.789 22.2188 189.244 21.7403 189.814 21.402C190.394 21.054 191.032 20.88 191.728 20.88C192.356 20.88 192.902 21.0057 193.366 21.257C193.84 21.4987 194.217 21.8032 194.497 22.1705V21.0105H196.165V29H194.497V27.811C194.217 28.188 193.835 28.5022 193.352 28.7535C192.869 29.0048 192.318 29.1305 191.699 29.1305C191.013 29.1305 190.384 28.9565 189.814 28.6085C189.244 28.2508 188.789 27.7578 188.451 27.1295C188.122 26.4915 187.958 25.7713 187.958 24.969ZM194.497 24.998C194.497 24.447 194.381 23.9685 194.149 23.5625C193.927 23.1565 193.632 22.8472 193.265 22.6345C192.898 22.4218 192.501 22.3155 192.076 22.3155C191.651 22.3155 191.254 22.4218 190.887 22.6345C190.52 22.8375 190.22 23.142 189.988 23.548C189.766 23.9443 189.654 24.418 189.654 24.969C189.654 25.52 189.766 26.0033 189.988 26.419C190.22 26.8347 190.52 27.1537 190.887 27.376C191.264 27.5887 191.66 27.695 192.076 27.695C192.501 27.695 192.898 27.5887 193.265 27.376C193.632 27.1633 193.927 26.854 194.149 26.448C194.381 26.0323 194.497 25.549 194.497 24.998ZM201.802 29.1305C201.048 29.1305 200.366 28.9613 199.757 28.623C199.148 28.275 198.67 27.7917 198.322 27.173C197.974 26.5447 197.8 25.8197 197.8 24.998C197.8 24.186 197.978 23.4658 198.336 22.8375C198.694 22.2092 199.182 21.7258 199.801 21.3875C200.419 21.0492 201.11 20.88 201.874 20.88C202.638 20.88 203.329 21.0492 203.948 21.3875C204.566 21.7258 205.054 22.2092 205.412 22.8375C205.77 23.4658 205.949 24.186 205.949 24.998C205.949 25.81 205.765 26.5302 205.398 27.1585C205.03 27.7868 204.528 28.275 203.89 28.623C203.261 28.9613 202.565 29.1305 201.802 29.1305ZM201.802 27.695C202.227 27.695 202.623 27.5935 202.991 27.3905C203.368 27.1875 203.672 26.883 203.904 26.477C204.136 26.071 204.252 25.578 204.252 24.998C204.252 24.418 204.141 23.9298 203.919 23.5335C203.696 23.1275 203.401 22.823 203.034 22.62C202.667 22.417 202.27 22.3155 201.845 22.3155C201.42 22.3155 201.023 22.417 200.656 22.62C200.298 22.823 200.013 23.1275 199.801 23.5335C199.588 23.9298 199.482 24.418 199.482 24.998C199.482 25.8583 199.699 26.5253 200.134 26.999C200.579 27.463 201.135 27.695 201.802 27.695Z" fill="black"/>
<defs>
<clipPath id="clip0_406_741">
<rect width="18" height="18" fill="white" transform="translate(57.5 15)"/>
</clipPath>
</defs>
</svg>
