<svg width="264" height="48" viewBox="0 0 264 48" fill="none" xmlns="http://www.w3.org/2000/svg">
<rect width="264" height="48" rx="4" fill="#1877F2"/>
<g clip-path="url(#clip0_412_812)">
<path d="M60 24C60 17.376 54.624 12 48 12C41.376 12 36 17.376 36 24C36 29.808 40.128 34.644 45.6 35.76V27.6H43.2V24H45.6V21C45.6 18.684 47.484 16.8 49.8 16.8H52.8V20.4H50.4C49.74 20.4 49.2 20.94 49.2 21.6V24H52.8V27.6H49.2V35.94C55.26 35.34 60 30.228 60 24Z" fill="white"/>
</g>
<path d="M69.2188 18.4844H71.625V27.9297H77.3281V30H69.2188V18.4844ZM85.9219 22.5625C86.6406 23.4635 87 24.5286 87 25.7578C87 27.0078 86.6406 28.0781 85.9219 28.9688C85.2031 29.8542 84.112 30.2969 82.6484 30.2969C81.1849 30.2969 80.0938 29.8542 79.375 28.9688C78.6562 28.0781 78.2969 27.0078 78.2969 25.7578C78.2969 24.5286 78.6562 23.4635 79.375 22.5625C80.0938 21.6615 81.1849 21.2109 82.6484 21.2109C84.112 21.2109 85.2031 21.6615 85.9219 22.5625ZM82.6406 23.0938C81.9896 23.0938 81.487 23.3255 81.1328 23.7891C80.7839 24.2474 80.6094 24.9036 80.6094 25.7578C80.6094 26.612 80.7839 27.2708 81.1328 27.7344C81.487 28.1979 81.9896 28.4297 82.6406 28.4297C83.2917 28.4297 83.7917 28.1979 84.1406 27.7344C84.4896 27.2708 84.6641 26.612 84.6641 25.7578C84.6641 24.9036 84.4896 24.2474 84.1406 23.7891C83.7917 23.3255 83.2917 23.0938 82.6406 23.0938ZM91.0078 31.4922C91.2474 31.6953 91.651 31.7969 92.2188 31.7969C93.0208 31.7969 93.5573 31.5286 93.8281 30.9922C94.0052 30.6484 94.0938 30.0703 94.0938 29.2578V28.7109C93.8802 29.0755 93.651 29.349 93.4062 29.5312C92.9635 29.8698 92.388 30.0391 91.6797 30.0391C90.5859 30.0391 89.7109 29.6562 89.0547 28.8906C88.4036 28.1198 88.0781 27.0781 88.0781 25.7656C88.0781 24.5 88.3932 23.4375 89.0234 22.5781C89.6536 21.7135 90.5469 21.2812 91.7031 21.2812C92.1302 21.2812 92.5026 21.3464 92.8203 21.4766C93.362 21.7005 93.7995 22.112 94.1328 22.7109V21.4844H96.2969V29.5625C96.2969 30.6615 96.112 31.4896 95.7422 32.0469C95.1068 33.0052 93.888 33.4844 92.0859 33.4844C90.9974 33.4844 90.1094 33.2708 89.4219 32.8438C88.7344 32.4167 88.3542 31.7786 88.2812 30.9297H90.7031C90.7656 31.1901 90.8672 31.3776 91.0078 31.4922ZM90.6328 27.0938C90.9349 27.8125 91.4766 28.1719 92.2578 28.1719C92.7786 28.1719 93.2188 27.9766 93.5781 27.5859C93.9375 27.1901 94.1172 26.5625 94.1172 25.7031C94.1172 24.8958 93.9453 24.2812 93.6016 23.8594C93.263 23.4375 92.8073 23.2266 92.2344 23.2266C91.4531 23.2266 90.9141 23.5938 90.6172 24.3281C90.4609 24.7188 90.3828 25.2005 90.3828 25.7734C90.3828 26.2682 90.4661 26.7083 90.6328 27.0938ZM100.672 21.4844V30H98.4141V21.4844H100.672ZM100.672 18.4141V20.4688H98.4141V18.4141H100.672ZM106.844 23.1328C106.089 23.1328 105.57 23.4531 105.289 24.0938C105.143 24.4323 105.07 24.8646 105.07 25.3906V30H102.852V21.5H105V22.7422C105.286 22.3047 105.557 21.9896 105.812 21.7969C106.271 21.4531 106.852 21.2812 107.555 21.2812C108.435 21.2812 109.154 21.513 109.711 21.9766C110.273 22.4349 110.555 23.1979 110.555 24.2656V30H108.273V24.8203C108.273 24.3724 108.214 24.0286 108.094 23.7891C107.875 23.3516 107.458 23.1328 106.844 23.1328ZM123.531 30L122.195 23.7969L120.844 30H118.531L116.141 21.4844H118.531L119.859 27.5938L121.086 21.4844H123.344L124.641 27.6172L125.969 21.4844H128.289L125.82 30H123.531ZM131.812 21.4844V30H129.555V21.4844H131.812ZM131.812 18.4141V20.4688H129.555V18.4141H131.812ZM137.875 28.4141V30.0781L136.82 30.1172C135.768 30.1536 135.049 29.9714 134.664 29.5703C134.414 29.3151 134.289 28.9219 134.289 28.3906V23.1484H133.102V21.5625H134.289V19.1875H136.492V21.5625H137.875V23.1484H136.492V27.6484C136.492 27.9974 136.536 28.2161 136.625 28.3047C136.714 28.388 136.984 28.4297 137.438 28.4297C137.505 28.4297 137.576 28.4297 137.648 28.4297C137.727 28.4245 137.802 28.4193 137.875 28.4141ZM147 25V30H144.727V24.8203C144.727 24.362 144.648 23.9922 144.492 23.7109C144.289 23.3151 143.904 23.1172 143.336 23.1172C142.747 23.1172 142.299 23.3151 141.992 23.7109C141.69 24.1016 141.539 24.6615 141.539 25.3906V30H139.32V18.5234H141.539V22.5938C141.862 22.099 142.234 21.7552 142.656 21.5625C143.083 21.3646 143.531 21.2656 144 21.2656C144.526 21.2656 145.003 21.3568 145.43 21.5391C145.862 21.7214 146.216 22 146.492 22.375C146.727 22.6927 146.87 23.0208 146.922 23.3594C146.974 23.6927 147 24.2396 147 25ZM161.883 20.5234H156.109V23.1719H161.164V25.1719H156.109V30H153.719V18.5H161.883V20.5234ZM163.641 22.4062C164.229 21.6562 165.24 21.2812 166.672 21.2812C167.604 21.2812 168.432 21.4661 169.156 21.8359C169.88 22.2057 170.242 22.9036 170.242 23.9297V27.8359C170.242 28.1068 170.247 28.4349 170.258 28.8203C170.273 29.112 170.318 29.3099 170.391 29.4141C170.464 29.5182 170.573 29.6042 170.719 29.6719V30H168.297C168.229 29.8281 168.182 29.6667 168.156 29.5156C168.13 29.3646 168.109 29.1927 168.094 29C167.786 29.3333 167.432 29.6172 167.031 29.8516C166.552 30.1276 166.01 30.2656 165.406 30.2656C164.635 30.2656 163.997 30.0469 163.492 29.6094C162.992 29.1667 162.742 28.5417 162.742 27.7344C162.742 26.6875 163.146 25.9297 163.953 25.4609C164.396 25.2057 165.047 25.0234 165.906 24.9141L166.664 24.8203C167.076 24.7682 167.37 24.7031 167.547 24.625C167.865 24.4896 168.023 24.2786 168.023 23.9922C168.023 23.6432 167.901 23.4036 167.656 23.2734C167.417 23.138 167.062 23.0703 166.594 23.0703C166.068 23.0703 165.695 23.2005 165.477 23.4609C165.32 23.6536 165.216 23.9141 165.164 24.2422H163.016C163.062 23.4974 163.271 22.8854 163.641 22.4062ZM165.297 28.3906C165.505 28.5625 165.76 28.6484 166.062 28.6484C166.542 28.6484 166.982 28.5078 167.383 28.2266C167.789 27.9453 168 27.4323 168.016 26.6875V25.8594C167.875 25.9479 167.732 26.0208 167.586 26.0781C167.445 26.1302 167.25 26.1797 167 26.2266L166.5 26.3203C166.031 26.4036 165.695 26.5052 165.492 26.625C165.148 26.8281 164.977 27.1432 164.977 27.5703C164.977 27.9505 165.083 28.224 165.297 28.3906ZM179.594 24.5391H177.312C177.271 24.2214 177.164 23.9349 176.992 23.6797C176.742 23.3359 176.354 23.1641 175.828 23.1641C175.078 23.1641 174.565 23.5365 174.289 24.2812C174.143 24.6771 174.07 25.2031 174.07 25.8594C174.07 26.4844 174.143 26.987 174.289 27.3672C174.555 28.0755 175.055 28.4297 175.789 28.4297C176.31 28.4297 176.68 28.2891 176.898 28.0078C177.117 27.7266 177.25 27.362 177.297 26.9141H179.57C179.518 27.5911 179.273 28.2318 178.836 28.8359C178.138 29.8099 177.104 30.2969 175.734 30.2969C174.365 30.2969 173.357 29.8906 172.711 29.0781C172.065 28.2656 171.742 27.2109 171.742 25.9141C171.742 24.4505 172.099 23.3125 172.812 22.5C173.526 21.6875 174.51 21.2812 175.766 21.2812C176.833 21.2812 177.706 21.5208 178.383 22C179.065 22.4792 179.469 23.3255 179.594 24.5391ZM188.422 27.5C188.365 28.0052 188.102 28.5182 187.633 29.0391C186.904 29.8672 185.883 30.2812 184.57 30.2812C183.487 30.2812 182.531 29.9323 181.703 29.2344C180.875 28.5365 180.461 27.401 180.461 25.8281C180.461 24.3542 180.833 23.224 181.578 22.4375C182.328 21.651 183.299 21.2578 184.492 21.2578C185.201 21.2578 185.839 21.3906 186.406 21.6562C186.974 21.9219 187.443 22.3411 187.812 22.9141C188.146 23.4193 188.362 24.0052 188.461 24.6719C188.518 25.0625 188.542 25.625 188.531 26.3594H182.703C182.734 27.2135 183.003 27.8125 183.508 28.1562C183.815 28.3698 184.185 28.4766 184.617 28.4766C185.076 28.4766 185.448 28.3464 185.734 28.0859C185.891 27.9453 186.029 27.75 186.148 27.5H188.422ZM186.219 24.8906C186.182 24.3021 186.003 23.8568 185.68 23.5547C185.362 23.2474 184.966 23.0938 184.492 23.0938C183.977 23.0938 183.576 23.2552 183.289 23.5781C183.008 23.901 182.831 24.3385 182.758 24.8906H186.219ZM194.664 30.2266C193.961 30.2266 193.396 30.0859 192.969 29.8047C192.714 29.638 192.438 29.3464 192.141 28.9297V30H189.961V18.5H192.18V22.5938C192.461 22.1979 192.771 21.8958 193.109 21.6875C193.51 21.4271 194.021 21.2969 194.641 21.2969C195.76 21.2969 196.635 21.7005 197.266 22.5078C197.901 23.3151 198.219 24.3568 198.219 25.6328C198.219 26.9557 197.906 28.0521 197.281 28.9219C196.656 29.7917 195.784 30.2266 194.664 30.2266ZM195.883 25.8672C195.883 25.263 195.805 24.763 195.648 24.3672C195.352 23.6172 194.805 23.2422 194.008 23.2422C193.201 23.2422 192.646 23.6094 192.344 24.3438C192.188 24.7344 192.109 25.2396 192.109 25.8594C192.109 26.5885 192.271 27.1927 192.594 27.6719C192.917 28.151 193.409 28.3906 194.07 28.3906C194.643 28.3906 195.089 28.1589 195.406 27.6953C195.724 27.2318 195.883 26.6224 195.883 25.8672ZM206.922 22.5625C207.641 23.4635 208 24.5286 208 25.7578C208 27.0078 207.641 28.0781 206.922 28.9688C206.203 29.8542 205.112 30.2969 203.648 30.2969C202.185 30.2969 201.094 29.8542 200.375 28.9688C199.656 28.0781 199.297 27.0078 199.297 25.7578C199.297 24.5286 199.656 23.4635 200.375 22.5625C201.094 21.6615 202.185 21.2109 203.648 21.2109C205.112 21.2109 206.203 21.6615 206.922 22.5625ZM203.641 23.0938C202.99 23.0938 202.487 23.3255 202.133 23.7891C201.784 24.2474 201.609 24.9036 201.609 25.7578C201.609 26.612 201.784 27.2708 202.133 27.7344C202.487 28.1979 202.99 28.4297 203.641 28.4297C204.292 28.4297 204.792 28.1979 205.141 27.7344C205.49 27.2708 205.664 26.612 205.664 25.7578C205.664 24.9036 205.49 24.2474 205.141 23.7891C204.792 23.3255 204.292 23.0938 203.641 23.0938ZM216.703 22.5625C217.422 23.4635 217.781 24.5286 217.781 25.7578C217.781 27.0078 217.422 28.0781 216.703 28.9688C215.984 29.8542 214.893 30.2969 213.43 30.2969C211.966 30.2969 210.875 29.8542 210.156 28.9688C209.438 28.0781 209.078 27.0078 209.078 25.7578C209.078 24.5286 209.438 23.4635 210.156 22.5625C210.875 21.6615 211.966 21.2109 213.43 21.2109C214.893 21.2109 215.984 21.6615 216.703 22.5625ZM213.422 23.0938C212.771 23.0938 212.268 23.3255 211.914 23.7891C211.565 24.2474 211.391 24.9036 211.391 25.7578C211.391 26.612 211.565 27.2708 211.914 27.7344C212.268 28.1979 212.771 28.4297 213.422 28.4297C214.073 28.4297 214.573 28.1979 214.922 27.7344C215.271 27.2708 215.445 26.612 215.445 25.7578C215.445 24.9036 215.271 24.2474 214.922 23.7891C214.573 23.3255 214.073 23.0938 213.422 23.0938ZM227.195 30H224.508L222.469 26.3594L221.547 27.3203V30H219.359V18.5234H221.547V24.7266L224.32 21.5234H227.078L224.102 24.7812L227.195 30Z" fill="white"/>
<defs>
<clipPath id="clip0_412_812">
<rect width="24" height="24" fill="white" transform="translate(36 12)"/>
</clipPath>
</defs>
</svg>
