<svg width="264" height="48" viewBox="0 0 264 48" fill="none" xmlns="http://www.w3.org/2000/svg">
<rect width="264" height="48" rx="4" fill="#E0EFFE"/>
<g clip-path="url(#clip0_412_820)">
<path d="M67.805 24.2305C67.805 23.5507 67.7499 22.8672 67.6323 22.1985H58.2V26.0493H63.6015C63.3773 27.2913 62.6571 28.3899 61.6026 29.0881V31.5867H64.825C66.7174 29.845 67.805 27.2729 67.805 24.2305Z" fill="#4285F4"/>
<path d="M58.2 34.0008C60.897 34.0008 63.1715 33.1152 64.8287 31.5867L61.6062 29.088C60.7096 29.698 59.5522 30.0434 58.2037 30.0434C55.5948 30.0434 53.3828 28.2833 52.5891 25.917H49.2637V28.4928C50.9613 31.8696 54.419 34.0008 58.2 34.0008V34.0008Z" fill="#34A853"/>
<path d="M52.5855 25.917C52.1666 24.675 52.1666 23.3302 52.5855 22.0882V19.5125H49.2638C47.8454 22.3381 47.8454 25.6671 49.2638 28.4928L52.5855 25.917V25.917Z" fill="#FBBC04"/>
<path d="M58.2 17.958C59.6257 17.936 61.0036 18.4725 62.0361 19.4572L64.8911 16.6022C63.0833 14.9046 60.6839 13.9713 58.2 14.0007C54.419 14.0007 50.9613 16.1319 49.2637 19.5123L52.5854 22.0881C53.3754 19.7181 55.5911 17.958 58.2 17.958V17.958Z" fill="#EA4335"/>
</g>
<path d="M77.2188 18.4844H79.625V27.9297H85.3281V30H77.2188V18.4844ZM93.9219 22.5625C94.6406 23.4635 95 24.5286 95 25.7578C95 27.0078 94.6406 28.0781 93.9219 28.9688C93.2031 29.8542 92.112 30.2969 90.6484 30.2969C89.1849 30.2969 88.0938 29.8542 87.375 28.9688C86.6562 28.0781 86.2969 27.0078 86.2969 25.7578C86.2969 24.5286 86.6562 23.4635 87.375 22.5625C88.0938 21.6615 89.1849 21.2109 90.6484 21.2109C92.112 21.2109 93.2031 21.6615 93.9219 22.5625ZM90.6406 23.0938C89.9896 23.0938 89.487 23.3255 89.1328 23.7891C88.7839 24.2474 88.6094 24.9036 88.6094 25.7578C88.6094 26.612 88.7839 27.2708 89.1328 27.7344C89.487 28.1979 89.9896 28.4297 90.6406 28.4297C91.2917 28.4297 91.7917 28.1979 92.1406 27.7344C92.4896 27.2708 92.6641 26.612 92.6641 25.7578C92.6641 24.9036 92.4896 24.2474 92.1406 23.7891C91.7917 23.3255 91.2917 23.0938 90.6406 23.0938ZM99.0078 31.4922C99.2474 31.6953 99.651 31.7969 100.219 31.7969C101.021 31.7969 101.557 31.5286 101.828 30.9922C102.005 30.6484 102.094 30.0703 102.094 29.2578V28.7109C101.88 29.0755 101.651 29.349 101.406 29.5312C100.964 29.8698 100.388 30.0391 99.6797 30.0391C98.5859 30.0391 97.7109 29.6562 97.0547 28.8906C96.4036 28.1198 96.0781 27.0781 96.0781 25.7656C96.0781 24.5 96.3932 23.4375 97.0234 22.5781C97.6536 21.7135 98.5469 21.2812 99.7031 21.2812C100.13 21.2812 100.503 21.3464 100.82 21.4766C101.362 21.7005 101.799 22.112 102.133 22.7109V21.4844H104.297V29.5625C104.297 30.6615 104.112 31.4896 103.742 32.0469C103.107 33.0052 101.888 33.4844 100.086 33.4844C98.9974 33.4844 98.1094 33.2708 97.4219 32.8438C96.7344 32.4167 96.3542 31.7786 96.2812 30.9297H98.7031C98.7656 31.1901 98.8672 31.3776 99.0078 31.4922ZM98.6328 27.0938C98.9349 27.8125 99.4766 28.1719 100.258 28.1719C100.779 28.1719 101.219 27.9766 101.578 27.5859C101.938 27.1901 102.117 26.5625 102.117 25.7031C102.117 24.8958 101.945 24.2812 101.602 23.8594C101.263 23.4375 100.807 23.2266 100.234 23.2266C99.4531 23.2266 98.9141 23.5938 98.6172 24.3281C98.4609 24.7188 98.3828 25.2005 98.3828 25.7734C98.3828 26.2682 98.4661 26.7083 98.6328 27.0938ZM108.672 21.4844V30H106.414V21.4844H108.672ZM108.672 18.4141V20.4688H106.414V18.4141H108.672ZM114.844 23.1328C114.089 23.1328 113.57 23.4531 113.289 24.0938C113.143 24.4323 113.07 24.8646 113.07 25.3906V30H110.852V21.5H113V22.7422C113.286 22.3047 113.557 21.9896 113.812 21.7969C114.271 21.4531 114.852 21.2812 115.555 21.2812C116.435 21.2812 117.154 21.513 117.711 21.9766C118.273 22.4349 118.555 23.1979 118.555 24.2656V30H116.273V24.8203C116.273 24.3724 116.214 24.0286 116.094 23.7891C115.875 23.3516 115.458 23.1328 114.844 23.1328ZM131.531 30L130.195 23.7969L128.844 30H126.531L124.141 21.4844H126.531L127.859 27.5938L129.086 21.4844H131.344L132.641 27.6172L133.969 21.4844H136.289L133.82 30H131.531ZM139.812 21.4844V30H137.555V21.4844H139.812ZM139.812 18.4141V20.4688H137.555V18.4141H139.812ZM145.875 28.4141V30.0781L144.82 30.1172C143.768 30.1536 143.049 29.9714 142.664 29.5703C142.414 29.3151 142.289 28.9219 142.289 28.3906V23.1484H141.102V21.5625H142.289V19.1875H144.492V21.5625H145.875V23.1484H144.492V27.6484C144.492 27.9974 144.536 28.2161 144.625 28.3047C144.714 28.388 144.984 28.4297 145.438 28.4297C145.505 28.4297 145.576 28.4297 145.648 28.4297C145.727 28.4245 145.802 28.4193 145.875 28.4141ZM155 25V30H152.727V24.8203C152.727 24.362 152.648 23.9922 152.492 23.7109C152.289 23.3151 151.904 23.1172 151.336 23.1172C150.747 23.1172 150.299 23.3151 149.992 23.7109C149.69 24.1016 149.539 24.6615 149.539 25.3906V30H147.32V18.5234H149.539V22.5938C149.862 22.099 150.234 21.7552 150.656 21.5625C151.083 21.3646 151.531 21.2656 152 21.2656C152.526 21.2656 153.003 21.3568 153.43 21.5391C153.862 21.7214 154.216 22 154.492 22.375C154.727 22.6927 154.87 23.0208 154.922 23.3594C154.974 23.6927 155 24.2396 155 25ZM168.781 29.7188C168.146 30.1094 167.365 30.3047 166.438 30.3047C164.911 30.3047 163.661 29.776 162.688 28.7188C161.672 27.6562 161.164 26.2031 161.164 24.3594C161.164 22.4948 161.677 21 162.703 19.875C163.729 18.75 165.086 18.1875 166.773 18.1875C168.237 18.1875 169.411 18.5599 170.297 19.3047C171.188 20.0443 171.698 20.9688 171.828 22.0781H169.461C169.279 21.2917 168.833 20.7422 168.125 20.4297C167.729 20.2578 167.289 20.1719 166.805 20.1719C165.878 20.1719 165.115 20.5234 164.516 21.2266C163.922 21.9245 163.625 22.9766 163.625 24.3828C163.625 25.7995 163.948 26.8021 164.594 27.3906C165.24 27.9792 165.974 28.2734 166.797 28.2734C167.604 28.2734 168.266 28.0417 168.781 27.5781C169.297 27.1094 169.615 26.4974 169.734 25.7422H167.07V23.8203H171.867V30H170.273L170.031 28.5625C169.568 29.1094 169.151 29.4948 168.781 29.7188ZM181.094 22.5625C181.812 23.4635 182.172 24.5286 182.172 25.7578C182.172 27.0078 181.812 28.0781 181.094 28.9688C180.375 29.8542 179.284 30.2969 177.82 30.2969C176.357 30.2969 175.266 29.8542 174.547 28.9688C173.828 28.0781 173.469 27.0078 173.469 25.7578C173.469 24.5286 173.828 23.4635 174.547 22.5625C175.266 21.6615 176.357 21.2109 177.82 21.2109C179.284 21.2109 180.375 21.6615 181.094 22.5625ZM177.812 23.0938C177.161 23.0938 176.659 23.3255 176.305 23.7891C175.956 24.2474 175.781 24.9036 175.781 25.7578C175.781 26.612 175.956 27.2708 176.305 27.7344C176.659 28.1979 177.161 28.4297 177.812 28.4297C178.464 28.4297 178.964 28.1979 179.312 27.7344C179.661 27.2708 179.836 26.612 179.836 25.7578C179.836 24.9036 179.661 24.2474 179.312 23.7891C178.964 23.3255 178.464 23.0938 177.812 23.0938ZM190.875 22.5625C191.594 23.4635 191.953 24.5286 191.953 25.7578C191.953 27.0078 191.594 28.0781 190.875 28.9688C190.156 29.8542 189.065 30.2969 187.602 30.2969C186.138 30.2969 185.047 29.8542 184.328 28.9688C183.609 28.0781 183.25 27.0078 183.25 25.7578C183.25 24.5286 183.609 23.4635 184.328 22.5625C185.047 21.6615 186.138 21.2109 187.602 21.2109C189.065 21.2109 190.156 21.6615 190.875 22.5625ZM187.594 23.0938C186.943 23.0938 186.44 23.3255 186.086 23.7891C185.737 24.2474 185.562 24.9036 185.562 25.7578C185.562 26.612 185.737 27.2708 186.086 27.7344C186.44 28.1979 186.943 28.4297 187.594 28.4297C188.245 28.4297 188.745 28.1979 189.094 27.7344C189.443 27.2708 189.617 26.612 189.617 25.7578C189.617 24.9036 189.443 24.2474 189.094 23.7891C188.745 23.3255 188.245 23.0938 187.594 23.0938ZM195.961 31.4922C196.201 31.6953 196.604 31.7969 197.172 31.7969C197.974 31.7969 198.51 31.5286 198.781 30.9922C198.958 30.6484 199.047 30.0703 199.047 29.2578V28.7109C198.833 29.0755 198.604 29.349 198.359 29.5312C197.917 29.8698 197.341 30.0391 196.633 30.0391C195.539 30.0391 194.664 29.6562 194.008 28.8906C193.357 28.1198 193.031 27.0781 193.031 25.7656C193.031 24.5 193.346 23.4375 193.977 22.5781C194.607 21.7135 195.5 21.2812 196.656 21.2812C197.083 21.2812 197.456 21.3464 197.773 21.4766C198.315 21.7005 198.753 22.112 199.086 22.7109V21.4844H201.25V29.5625C201.25 30.6615 201.065 31.4896 200.695 32.0469C200.06 33.0052 198.841 33.4844 197.039 33.4844C195.951 33.4844 195.062 33.2708 194.375 32.8438C193.688 32.4167 193.307 31.7786 193.234 30.9297H195.656C195.719 31.1901 195.82 31.3776 195.961 31.4922ZM195.586 27.0938C195.888 27.8125 196.43 28.1719 197.211 28.1719C197.732 28.1719 198.172 27.9766 198.531 27.5859C198.891 27.1901 199.07 26.5625 199.07 25.7031C199.07 24.8958 198.898 24.2812 198.555 23.8594C198.216 23.4375 197.76 23.2266 197.188 23.2266C196.406 23.2266 195.867 23.5938 195.57 24.3281C195.414 24.7188 195.336 25.2005 195.336 25.7734C195.336 26.2682 195.419 26.7083 195.586 27.0938ZM203.383 18.4844H205.609V30H203.383V18.4844ZM215.078 27.5C215.021 28.0052 214.758 28.5182 214.289 29.0391C213.56 29.8672 212.539 30.2812 211.227 30.2812C210.143 30.2812 209.188 29.9323 208.359 29.2344C207.531 28.5365 207.117 27.401 207.117 25.8281C207.117 24.3542 207.49 23.224 208.234 22.4375C208.984 21.651 209.956 21.2578 211.148 21.2578C211.857 21.2578 212.495 21.3906 213.062 21.6562C213.63 21.9219 214.099 22.3411 214.469 22.9141C214.802 23.4193 215.018 24.0052 215.117 24.6719C215.174 25.0625 215.198 25.625 215.188 26.3594H209.359C209.391 27.2135 209.659 27.8125 210.164 28.1562C210.471 28.3698 210.841 28.4766 211.273 28.4766C211.732 28.4766 212.104 28.3464 212.391 28.0859C212.547 27.9453 212.685 27.75 212.805 27.5H215.078ZM212.875 24.8906C212.839 24.3021 212.659 23.8568 212.336 23.5547C212.018 23.2474 211.622 23.0938 211.148 23.0938C210.633 23.0938 210.232 23.2552 209.945 23.5781C209.664 23.901 209.487 24.3385 209.414 24.8906H212.875Z" fill="#007DFA"/>
<defs>
<clipPath id="clip0_412_820">
<rect width="20" height="20" fill="white" transform="translate(48 14)"/>
</clipPath>
</defs>
</svg>
