<svg width="264" height="48" viewBox="0 0 264 48" fill="none" xmlns="http://www.w3.org/2000/svg">
<rect width="264" height="48" rx="4" fill="#03C75A"/>
<path d="M62.3491 24.5001L56.4169 16.8889H51.5V31.1111H56.6509V23.4986L62.5831 31.1111H67.5V16.8889H62.3491V24.5001Z" fill="white"/>
<path d="M83.7188 18.4844H86.125V27.9297H91.8281V30H83.7188V18.4844ZM100.422 22.5625C101.141 23.4635 101.5 24.5286 101.5 25.7578C101.5 27.0078 101.141 28.0781 100.422 28.9688C99.7031 29.8542 98.612 30.2969 97.1484 30.2969C95.6849 30.2969 94.5938 29.8542 93.875 28.9688C93.1562 28.0781 92.7969 27.0078 92.7969 25.7578C92.7969 24.5286 93.1562 23.4635 93.875 22.5625C94.5938 21.6615 95.6849 21.2109 97.1484 21.2109C98.612 21.2109 99.7031 21.6615 100.422 22.5625ZM97.1406 23.0938C96.4896 23.0938 95.987 23.3255 95.6328 23.7891C95.2839 24.2474 95.1094 24.9036 95.1094 25.7578C95.1094 26.612 95.2839 27.2708 95.6328 27.7344C95.987 28.1979 96.4896 28.4297 97.1406 28.4297C97.7917 28.4297 98.2917 28.1979 98.6406 27.7344C98.9896 27.2708 99.1641 26.612 99.1641 25.7578C99.1641 24.9036 98.9896 24.2474 98.6406 23.7891C98.2917 23.3255 97.7917 23.0938 97.1406 23.0938ZM105.508 31.4922C105.747 31.6953 106.151 31.7969 106.719 31.7969C107.521 31.7969 108.057 31.5286 108.328 30.9922C108.505 30.6484 108.594 30.0703 108.594 29.2578V28.7109C108.38 29.0755 108.151 29.349 107.906 29.5312C107.464 29.8698 106.888 30.0391 106.18 30.0391C105.086 30.0391 104.211 29.6562 103.555 28.8906C102.904 28.1198 102.578 27.0781 102.578 25.7656C102.578 24.5 102.893 23.4375 103.523 22.5781C104.154 21.7135 105.047 21.2812 106.203 21.2812C106.63 21.2812 107.003 21.3464 107.32 21.4766C107.862 21.7005 108.299 22.112 108.633 22.7109V21.4844H110.797V29.5625C110.797 30.6615 110.612 31.4896 110.242 32.0469C109.607 33.0052 108.388 33.4844 106.586 33.4844C105.497 33.4844 104.609 33.2708 103.922 32.8438C103.234 32.4167 102.854 31.7786 102.781 30.9297H105.203C105.266 31.1901 105.367 31.3776 105.508 31.4922ZM105.133 27.0938C105.435 27.8125 105.977 28.1719 106.758 28.1719C107.279 28.1719 107.719 27.9766 108.078 27.5859C108.438 27.1901 108.617 26.5625 108.617 25.7031C108.617 24.8958 108.445 24.2812 108.102 23.8594C107.763 23.4375 107.307 23.2266 106.734 23.2266C105.953 23.2266 105.414 23.5938 105.117 24.3281C104.961 24.7188 104.883 25.2005 104.883 25.7734C104.883 26.2682 104.966 26.7083 105.133 27.0938ZM115.172 21.4844V30H112.914V21.4844H115.172ZM115.172 18.4141V20.4688H112.914V18.4141H115.172ZM121.344 23.1328C120.589 23.1328 120.07 23.4531 119.789 24.0938C119.643 24.4323 119.57 24.8646 119.57 25.3906V30H117.352V21.5H119.5V22.7422C119.786 22.3047 120.057 21.9896 120.312 21.7969C120.771 21.4531 121.352 21.2812 122.055 21.2812C122.935 21.2812 123.654 21.513 124.211 21.9766C124.773 22.4349 125.055 23.1979 125.055 24.2656V30H122.773V24.8203C122.773 24.3724 122.714 24.0286 122.594 23.7891C122.375 23.3516 121.958 23.1328 121.344 23.1328ZM138.031 30L136.695 23.7969L135.344 30H133.031L130.641 21.4844H133.031L134.359 27.5938L135.586 21.4844H137.844L139.141 27.6172L140.469 21.4844H142.789L140.32 30H138.031ZM146.312 21.4844V30H144.055V21.4844H146.312ZM146.312 18.4141V20.4688H144.055V18.4141H146.312ZM152.375 28.4141V30.0781L151.32 30.1172C150.268 30.1536 149.549 29.9714 149.164 29.5703C148.914 29.3151 148.789 28.9219 148.789 28.3906V23.1484H147.602V21.5625H148.789V19.1875H150.992V21.5625H152.375V23.1484H150.992V27.6484C150.992 27.9974 151.036 28.2161 151.125 28.3047C151.214 28.388 151.484 28.4297 151.938 28.4297C152.005 28.4297 152.076 28.4297 152.148 28.4297C152.227 28.4245 152.302 28.4193 152.375 28.4141ZM161.5 25V30H159.227V24.8203C159.227 24.362 159.148 23.9922 158.992 23.7109C158.789 23.3151 158.404 23.1172 157.836 23.1172C157.247 23.1172 156.799 23.3151 156.492 23.7109C156.19 24.1016 156.039 24.6615 156.039 25.3906V30H153.82V18.5234H156.039V22.5938C156.362 22.099 156.734 21.7552 157.156 21.5625C157.583 21.3646 158.031 21.2656 158.5 21.2656C159.026 21.2656 159.503 21.3568 159.93 21.5391C160.362 21.7214 160.716 22 160.992 22.375C161.227 22.6927 161.37 23.0208 161.422 23.3594C161.474 23.6927 161.5 24.2396 161.5 25ZM177.531 30H175.125L170.422 21.8203V30H168.18V18.4844H170.703L175.289 26.5234V18.4844H177.531V30ZM179.922 22.4062C180.51 21.6562 181.521 21.2812 182.953 21.2812C183.885 21.2812 184.714 21.4661 185.438 21.8359C186.161 22.2057 186.523 22.9036 186.523 23.9297V27.8359C186.523 28.1068 186.529 28.4349 186.539 28.8203C186.555 29.112 186.599 29.3099 186.672 29.4141C186.745 29.5182 186.854 29.6042 187 29.6719V30H184.578C184.51 29.8281 184.464 29.6667 184.438 29.5156C184.411 29.3646 184.391 29.1927 184.375 29C184.068 29.3333 183.714 29.6172 183.312 29.8516C182.833 30.1276 182.292 30.2656 181.688 30.2656C180.917 30.2656 180.279 30.0469 179.773 29.6094C179.273 29.1667 179.023 28.5417 179.023 27.7344C179.023 26.6875 179.427 25.9297 180.234 25.4609C180.677 25.2057 181.328 25.0234 182.188 24.9141L182.945 24.8203C183.357 24.7682 183.651 24.7031 183.828 24.625C184.146 24.4896 184.305 24.2786 184.305 23.9922C184.305 23.6432 184.182 23.4036 183.938 23.2734C183.698 23.138 183.344 23.0703 182.875 23.0703C182.349 23.0703 181.977 23.2005 181.758 23.4609C181.602 23.6536 181.497 23.9141 181.445 24.2422H179.297C179.344 23.4974 179.552 22.8854 179.922 22.4062ZM181.578 28.3906C181.786 28.5625 182.042 28.6484 182.344 28.6484C182.823 28.6484 183.263 28.5078 183.664 28.2266C184.07 27.9453 184.281 27.4323 184.297 26.6875V25.8594C184.156 25.9479 184.013 26.0208 183.867 26.0781C183.727 26.1302 183.531 26.1797 183.281 26.2266L182.781 26.3203C182.312 26.4036 181.977 26.5052 181.773 26.625C181.43 26.8281 181.258 27.1432 181.258 27.5703C181.258 27.9505 181.365 28.224 181.578 28.3906ZM187.672 21.4844H190.172L191.945 27.7656L193.758 21.4844H196.148L193.078 30H190.727L187.672 21.4844ZM204.703 27.5C204.646 28.0052 204.383 28.5182 203.914 29.0391C203.185 29.8672 202.164 30.2812 200.852 30.2812C199.768 30.2812 198.812 29.9323 197.984 29.2344C197.156 28.5365 196.742 27.401 196.742 25.8281C196.742 24.3542 197.115 23.224 197.859 22.4375C198.609 21.651 199.581 21.2578 200.773 21.2578C201.482 21.2578 202.12 21.3906 202.688 21.6562C203.255 21.9219 203.724 22.3411 204.094 22.9141C204.427 23.4193 204.643 24.0052 204.742 24.6719C204.799 25.0625 204.823 25.625 204.812 26.3594H198.984C199.016 27.2135 199.284 27.8125 199.789 28.1562C200.096 28.3698 200.466 28.4766 200.898 28.4766C201.357 28.4766 201.729 28.3464 202.016 28.0859C202.172 27.9453 202.31 27.75 202.43 27.5H204.703ZM202.5 24.8906C202.464 24.3021 202.284 23.8568 201.961 23.5547C201.643 23.2474 201.247 23.0938 200.773 23.0938C200.258 23.0938 199.857 23.2552 199.57 23.5781C199.289 23.901 199.112 24.3385 199.039 24.8906H202.5ZM210.602 23.5391C209.706 23.5391 209.104 23.8307 208.797 24.4141C208.625 24.7422 208.539 25.2474 208.539 25.9297V30H206.297V21.4844H208.422V22.9688C208.766 22.401 209.065 22.013 209.32 21.8047C209.737 21.4557 210.279 21.2812 210.945 21.2812C210.987 21.2812 211.021 21.2839 211.047 21.2891C211.078 21.2891 211.143 21.2917 211.242 21.2969V23.5781C211.102 23.5625 210.977 23.5521 210.867 23.5469C210.758 23.5417 210.669 23.5391 210.602 23.5391Z" fill="white"/>
</svg>
