<svg xmlns="http://www.w3.org/2000/svg" xmlns:xlink="http://www.w3.org/1999/xlink" width="1080" zoomAndPan="magnify" viewBox="0 0 810 809.999993" height="1080" preserveAspectRatio="xMidYMid meet" version="1.0"><defs><g/><clipPath id="5c48e5ed09"><path d="M 145 131 L 534 131 L 534 527 L 145 527 Z M 145 131 " clip-rule="nonzero"/></clipPath><clipPath id="1494d2ea0f"><path d="M 356.738281 127.800781 L 536.644531 286.652344 L 322.195312 529.527344 L 142.289062 370.675781 Z M 356.738281 127.800781 " clip-rule="nonzero"/></clipPath><clipPath id="67ac6b6728"><path d="M 356.738281 127.800781 L 536.644531 286.652344 L 322.195312 529.527344 L 142.289062 370.675781 Z M 356.738281 127.800781 " clip-rule="nonzero"/></clipPath><clipPath id="6a61de21ca"><path d="M 476 319 L 498 319 L 498 342 L 476 342 Z M 476 319 " clip-rule="nonzero"/></clipPath><clipPath id="d1faaf60d6"><path d="M 356.738281 127.800781 L 536.644531 286.652344 L 322.195312 529.527344 L 142.289062 370.675781 Z M 356.738281 127.800781 " clip-rule="nonzero"/></clipPath><clipPath id="ad1326852c"><path d="M 356.738281 127.800781 L 536.644531 286.652344 L 322.195312 529.527344 L 142.289062 370.675781 Z M 356.738281 127.800781 " clip-rule="nonzero"/></clipPath><clipPath id="c93f364afc"><path d="M 361.4375 196.003906 L 545.9375 196.003906 L 545.9375 380.503906 L 361.4375 380.503906 Z M 361.4375 196.003906 " clip-rule="nonzero"/></clipPath><clipPath id="6c3f5ad73f"><path d="M 388 237 L 501 237 L 501 357 L 388 357 Z M 388 237 " clip-rule="nonzero"/></clipPath><clipPath id="bb1e18eb70"><path d="M 393.21875 235.53125 L 505.617188 240.304688 L 500.6875 356.449219 L 388.285156 351.679688 Z M 393.21875 235.53125 " clip-rule="nonzero"/></clipPath><clipPath id="125a02547e"><path d="M 393.21875 235.53125 L 505.617188 240.304688 L 500.6875 356.449219 L 388.285156 351.679688 Z M 393.21875 235.53125 " clip-rule="nonzero"/></clipPath><clipPath id="96f657cd79"><path d="M 432 360 L 460 360 L 460 375 L 432 375 Z M 432 360 " clip-rule="nonzero"/></clipPath><clipPath id="c231271068"><path d="M 432.808594 360.300781 L 460.84375 361.492188 L 460.257812 375.320312 L 432.222656 374.128906 Z M 432.808594 360.300781 " clip-rule="nonzero"/></clipPath><clipPath id="a0e4e8d7a7"><path d="M 440.03125 360.628906 C 460.5 367.335938 460.363281 370.574219 459.332031 371.988281 C 458.296875 373.40625 455.011719 374.398438 453.40625 374.007812 C 451.964844 373.621094 450.253906 371.929688 449.992188 370.457031 C 449.734375 368.824219 450.851562 365.46875 452.347656 364.558594 C 453.847656 363.648438 457.394531 364.125 458.640625 365.3125 C 459.886719 366.5 460.222656 370.082031 459.675781 371.515625 C 459.304688 372.636719 458.464844 373.25 457.304688 373.847656 C 455.160156 374.730469 450.777344 374.867188 447.398438 374.238281 C 443.535156 373.589844 437.804688 371.074219 435.4375 369.515625 C 434.175781 368.652344 433.390625 368.132812 433.113281 366.984375 C 432.683594 365.667969 432.777344 363.402344 433.636719 362.304688 C 434.664062 361.050781 440.03125 360.628906 440.03125 360.628906 " clip-rule="nonzero"/></clipPath><clipPath id="bd99808466"><path d="M 395 346 L 495 346 L 495 367 L 395 367 Z M 395 346 " clip-rule="nonzero"/></clipPath><clipPath id="140747540f"><path d="M 395.371094 341.425781 L 494.835938 345.648438 L 493.871094 368.351562 L 394.40625 364.128906 Z M 395.371094 341.425781 " clip-rule="nonzero"/></clipPath><clipPath id="4a41b86e03"><path d="M 463.769531 366.015625 C 420.855469 364.679688 402.875 360.511719 398.019531 356.414062 C 395.984375 354.707031 395.265625 352.566406 395.332031 350.949219 C 395.390625 349.65625 396.261719 348.230469 397.265625 347.464844 C 398.109375 346.6875 399.09375 346.40625 400.882812 346.320312 C 405.425781 346.1875 416.886719 351.214844 425.59375 352.394531 C 435.265625 353.78125 451.558594 351.878906 456.515625 353.546875 C 458.273438 354.109375 459.210938 354.957031 459.816406 355.957031 C 460.421875 356.957031 460.679688 358.589844 460.46875 359.714844 C 460.25 361.003906 459.542969 362.429688 458.539062 363.199219 C 457.53125 363.96875 456.546875 364.25 454.757812 364.335938 C 450.050781 364.460938 433.320312 361.316406 429.5625 358.238281 C 427.835938 356.871094 427.09375 355.214844 427.164062 353.597656 C 427.234375 351.980469 428.628906 349.605469 430.78125 348.5625 C 435.410156 346.488281 448.828125 351.273438 458.398438 351.195312 C 468.617188 351.140625 485.074219 345.355469 490.328125 347.6875 C 492.714844 348.761719 494.066406 351.25 494.152344 353.039062 C 494.246094 354.664062 493.207031 356.238281 491.6875 357.632812 C 489.488281 359.8125 484.71875 361.390625 480.605469 362.839844 C 475.835938 364.421875 468.257812 367.179688 464.238281 366.359375 C 461.664062 365.925781 459.148438 364.035156 458.410156 362.382812 C 457.824219 360.898438 458.257812 358.324219 459.285156 357.070312 C 460.480469 355.660156 464.25 354.6875 466.007812 355.246094 C 467.605469 355.800781 469.304688 357.820312 469.558594 359.453125 C 469.808594 361.246094 468.207031 364.582031 466.703125 365.652344 C 465.367188 366.570312 462.613281 366.453125 461.1875 365.742188 C 459.757812 365.035156 458.226562 362.863281 458.132812 361.238281 C 458.039062 359.609375 458.609375 357.691406 460.296875 356.140625 C 464.507812 352.425781 485.21875 345.847656 490.328125 347.6875 C 492.726562 348.4375 494.066406 351.25 494.152344 353.039062 C 494.242188 354.824219 492.847656 357.035156 490.523438 358.394531 C 485.859375 361.277344 472.371094 362.003906 462.800781 362.082031 C 452.414062 362.289062 435.730469 361.90625 430.675781 358.773438 C 428.460938 357.382812 427.089844 355.378906 427.164062 353.597656 C 427.234375 351.980469 428.636719 349.445312 430.78125 348.5625 C 435.558594 346.820312 455.289062 351.875 458.894531 354.78125 C 460.308594 355.816406 460.417969 357.117188 460.523438 358.417969 C 460.628906 359.722656 460.398438 361.332031 459.550781 362.269531 C 458.53125 363.359375 457.046875 363.945312 454.757812 364.335938 C 449.363281 365.402344 434.808594 364.460938 426.414062 363.621094 C 419.800781 362.851562 413.851562 361.625 408.566406 360.105469 C 404.242188 358.785156 398.945312 357.589844 396.914062 355.71875 C 395.824219 354.699219 395.386719 353.546875 395.277344 352.246094 C 395.179688 350.78125 396.089844 348.386719 397.265625 347.464844 C 398.441406 346.542969 399.910156 346.28125 402.175781 346.375 C 408.328125 346.636719 424.511719 354.945312 435.308594 356.539062 C 445.140625 357.929688 459.367188 355.128906 464.019531 356.296875 C 465.625 356.691406 466.414062 357.210938 467.1875 358.054688 C 467.960938 358.898438 468.554688 360.21875 468.34375 361.347656 C 467.960938 362.789062 463.769531 366.015625 463.769531 366.015625 " clip-rule="nonzero"/></clipPath><clipPath id="5bf14b080b"><path d="M 360 194 L 547 194 L 547 382 L 360 382 Z M 360 194 " clip-rule="nonzero"/></clipPath><clipPath id="1529ed88b2"><path d="M 371.683594 184.5 L 649.550781 216.914062 L 617.394531 492.546875 L 339.527344 460.128906 Z M 371.683594 184.5 " clip-rule="nonzero"/></clipPath><clipPath id="eedacdbbae"><path d="M 371.683594 184.5 L 649.550781 216.914062 L 617.394531 492.546875 L 339.527344 460.128906 Z M 371.683594 184.5 " clip-rule="nonzero"/></clipPath><clipPath id="d242cea3bd"><path d="M 500 360 L 545 360 L 545 399 L 500 399 Z M 500 360 " clip-rule="nonzero"/></clipPath><clipPath id="8535d11022"><path d="M 371.683594 184.5 L 649.550781 216.914062 L 617.394531 492.546875 L 339.527344 460.128906 Z M 371.683594 184.5 " clip-rule="nonzero"/></clipPath><clipPath id="d4c0c82c82"><path d="M 371.683594 184.5 L 649.550781 216.914062 L 617.394531 492.546875 L 339.527344 460.128906 Z M 371.683594 184.5 " clip-rule="nonzero"/></clipPath><clipPath id="95cb8b88a0"><path d="M 533 389 L 619 389 L 619 491 L 533 491 Z M 533 389 " clip-rule="nonzero"/></clipPath><clipPath id="34a54e0341"><path d="M 371.683594 184.5 L 649.550781 216.914062 L 617.394531 492.546875 L 339.527344 460.128906 Z M 371.683594 184.5 " clip-rule="nonzero"/></clipPath><clipPath id="d04855f682"><path d="M 371.683594 184.5 L 649.550781 216.914062 L 617.394531 492.546875 L 339.527344 460.128906 Z M 371.683594 184.5 " clip-rule="nonzero"/></clipPath><clipPath id="92262f5c33"><path d="M 387 248 L 472 248 L 472 354 L 387 354 Z M 387 248 " clip-rule="nonzero"/></clipPath><clipPath id="2ab802110e"><path d="M 371.683594 184.5 L 649.550781 216.914062 L 617.394531 492.546875 L 339.527344 460.128906 Z M 371.683594 184.5 " clip-rule="nonzero"/></clipPath><clipPath id="463ed760c1"><path d="M 371.683594 184.5 L 649.550781 216.914062 L 617.394531 492.546875 L 339.527344 460.128906 Z M 371.683594 184.5 " clip-rule="nonzero"/></clipPath></defs><g clip-path="url(#5c48e5ed09)"><g clip-path="url(#1494d2ea0f)"><g clip-path="url(#67ac6b6728)"><path fill="#5271ff" d="M 530.5 281.226562 L 362.882812 133.230469 C 359.398438 130.148438 355.105469 130.417969 352.023438 133.90625 L 147.765625 365.242188 C 144.683594 368.730469 144.949219 373.023438 148.433594 376.101562 L 316.050781 524.101562 C 319.539062 527.179688 323.832031 526.910156 326.910156 523.421875 L 475.011719 355.691406 C 478.09375 352.203125 477.828125 347.910156 474.339844 344.832031 C 470.855469 341.753906 466.5625 342.019531 463.480469 345.507812 L 422.605469 391.804688 L 378.621094 352.96875 C 390.007812 334.128906 387.453125 309.183594 370.152344 293.910156 C 352.855469 278.636719 327.65625 279.070312 310.503906 292.820312 L 266.519531 253.988281 L 358.460938 149.859375 L 393.191406 180.523438 L 352.316406 226.820312 C 349.234375 230.308594 349.5 234.601562 352.988281 237.679688 L 428.078125 303.984375 C 431.566406 307.0625 435.859375 306.792969 438.941406 303.304688 L 479.816406 257.011719 L 514.546875 287.675781 L 499.261719 304.984375 C 496.179688 308.476562 496.445312 312.769531 499.933594 315.847656 C 503.417969 318.925781 507.710938 318.65625 510.792969 315.167969 L 531.171875 292.089844 C 534.253906 288.601562 533.988281 284.304688 530.5 281.226562 Z M 274.210938 466.621094 L 210.652344 410.5 L 246.433594 369.976562 L 309.992188 426.097656 Z M 359.847656 305.585938 C 372.585938 316.832031 373.789062 336.28125 362.53125 349.03125 C 351.277344 361.777344 331.695312 362.875 319.089844 351.746094 C 306.484375 340.613281 305.148438 321.046875 316.402344 308.300781 C 327.660156 295.554688 347.109375 294.335938 359.847656 305.585938 Z M 300.3125 304.363281 C 288.925781 323.203125 291.484375 348.144531 308.78125 363.417969 C 326.078125 378.691406 351.28125 378.257812 368.433594 364.507812 L 412.414062 403.34375 L 320.476562 507.46875 L 285.746094 476.804688 L 326.621094 430.511719 C 329.699219 427.023438 329.433594 422.730469 325.949219 419.648438 L 250.855469 353.347656 C 247.371094 350.269531 243.078125 350.535156 239.996094 354.027344 L 199.121094 400.320312 L 164.390625 369.652344 L 256.332031 265.527344 Z M 432.503906 287.351562 L 368.941406 231.230469 L 404.722656 190.707031 L 468.28125 246.828125 Z M 432.503906 287.351562 " fill-opacity="1" fill-rule="nonzero"/></g></g></g><g clip-path="url(#6a61de21ca)"><g clip-path="url(#d1faaf60d6)"><g clip-path="url(#ad1326852c)"><path fill="#5271ff" d="M 494.71875 321.75 C 491.234375 318.671875 486.9375 318.941406 483.859375 322.429688 L 478.765625 328.199219 C 475.683594 331.6875 475.949219 335.984375 479.433594 339.0625 C 482.921875 342.140625 487.214844 341.871094 490.296875 338.382812 L 495.390625 332.613281 C 498.472656 329.125 498.207031 324.828125 494.71875 321.75 Z M 494.71875 321.75 " fill-opacity="1" fill-rule="nonzero"/></g></g></g><g fill="#ffffff" fill-opacity="1"><g transform="translate(2.674534, 677.302504)"><g><path d="M 17.636719 -5.730469 L 17.636719 -20.785156 L 37.300781 -20.785156 C 39.769531 -20.785156 42.242188 -21.121094 44.488281 -21.796875 C 46.738281 -22.46875 48.871094 -23.707031 51.003906 -25.390625 C 53.027344 -26.964844 54.714844 -29.433594 55.949219 -32.691406 C 57.183594 -35.839844 57.859375 -39.660156 57.859375 -44.152344 C 57.859375 -49.09375 56.734375 -53.253906 54.488281 -56.734375 C 52.242188 -60.21875 49.546875 -62.691406 46.511719 -64.148438 C 43.476562 -65.5 40.332031 -66.285156 36.960938 -66.285156 L 11.910156 -66.285156 C 10.335938 -66.285156 8.988281 -65.722656 7.863281 -64.597656 C 6.742188 -63.476562 6.179688 -62.128906 6.179688 -60.554688 L 6.179688 -5.730469 C 6.179688 -4.15625 6.742188 -2.808594 7.863281 -1.683594 C 8.988281 -0.5625 10.335938 0 11.910156 0 C 13.480469 0 14.828125 -0.5625 15.953125 -1.683594 C 17.078125 -2.808594 17.636719 -4.15625 17.636719 -5.730469 Z M 17.636719 -55.5 L 36.851562 -55.5 C 39.546875 -55.5 41.90625 -54.601562 43.703125 -52.914062 C 45.5 -51.117188 46.511719 -48.195312 46.511719 -44.152344 C 46.511719 -35.726562 43.253906 -31.570312 36.851562 -31.570312 L 17.636719 -31.570312 Z M 17.636719 -55.5 "/></g></g></g><g fill="#5271ff" fill-opacity="1"><g transform="translate(59.045472, 677.302504)"><g><path d="M 6.742188 -60.554688 L 6.742188 -5.730469 C 6.742188 -4.15625 7.300781 -2.808594 8.425781 -1.683594 C 9.550781 -0.5625 10.898438 0 12.46875 0 C 14.042969 0 15.390625 -0.5625 16.515625 -1.683594 C 17.636719 -2.808594 18.199219 -4.15625 18.199219 -5.730469 L 18.199219 -60.554688 C 18.199219 -62.128906 17.636719 -63.476562 16.515625 -64.597656 C 15.390625 -65.722656 14.042969 -66.285156 12.46875 -66.285156 C 10.898438 -66.285156 9.550781 -65.722656 8.425781 -64.597656 C 7.300781 -63.476562 6.742188 -62.128906 6.742188 -60.554688 Z M 6.742188 -60.554688 "/></g></g></g><g fill="#5271ff" fill-opacity="1"><g transform="translate(79.714577, 677.302504)"><g><path d="M 23.480469 -55.273438 L 23.480469 -5.730469 C 23.480469 -4.15625 24.042969 -2.808594 25.164062 -1.683594 C 26.289062 -0.5625 27.636719 0 29.210938 0 C 30.78125 0 32.132812 -0.5625 33.253906 -1.683594 C 34.378906 -2.808594 34.941406 -4.15625 34.941406 -5.730469 L 34.941406 -55.273438 L 48.984375 -55.273438 C 50.445312 -55.273438 51.679688 -55.722656 52.804688 -56.847656 C 53.925781 -57.972656 54.488281 -59.207031 54.488281 -60.78125 C 54.488281 -62.242188 53.925781 -63.476562 52.804688 -64.597656 C 51.679688 -65.722656 50.445312 -66.285156 48.984375 -66.285156 L 9.4375 -66.285156 C 7.863281 -66.285156 6.628906 -65.722656 5.503906 -64.597656 C 4.382812 -63.476562 3.933594 -62.242188 3.933594 -60.78125 C 3.933594 -59.207031 4.382812 -57.972656 5.503906 -56.847656 C 6.628906 -55.722656 7.863281 -55.273438 9.4375 -55.273438 Z M 23.480469 -55.273438 "/></g></g></g><g fill="#5271ff" fill-opacity="1"><g transform="translate(133.860104, 677.302504)"><g><path d="M 36.738281 0.675781 C 43.367188 0.675781 49.09375 -0.675781 53.925781 -3.59375 C 55.722656 -4.492188 56.621094 -6.066406 56.621094 -8.203125 C 56.621094 -9.550781 56.0625 -10.785156 54.9375 -11.910156 C 53.8125 -12.917969 52.578125 -13.480469 51.230469 -13.480469 C 50.445312 -13.480469 49.65625 -13.257812 48.984375 -12.917969 C 45.5 -11.121094 41.34375 -10.335938 36.625 -10.335938 C 34.714844 -10.335938 32.917969 -10.449219 31.234375 -10.785156 C 29.546875 -11.011719 27.75 -11.683594 25.726562 -12.695312 C 23.707031 -13.707031 21.90625 -15.054688 20.445312 -16.628906 C 18.988281 -18.199219 17.75 -20.558594 16.851562 -23.480469 C 15.839844 -26.402344 15.390625 -29.882812 15.390625 -33.929688 C 15.390625 -38.199219 15.953125 -41.792969 17.1875 -44.828125 C 18.425781 -47.859375 20.109375 -50.105469 22.355469 -51.679688 C 24.492188 -53.140625 26.738281 -54.152344 28.984375 -54.824219 C 31.234375 -55.5 33.816406 -55.835938 36.625 -55.835938 C 41.34375 -55.835938 45.5 -54.9375 48.984375 -53.253906 C 49.65625 -52.804688 50.445312 -52.691406 51.230469 -52.691406 C 52.578125 -52.691406 53.8125 -53.140625 54.9375 -54.261719 C 56.0625 -55.273438 56.621094 -56.511719 56.621094 -57.972656 C 56.621094 -59.992188 55.722656 -61.566406 53.925781 -62.578125 C 49.09375 -65.386719 43.367188 -66.847656 36.738281 -66.847656 C 32.804688 -66.847656 28.984375 -66.171875 25.277344 -65.050781 C 21.570312 -63.8125 18.085938 -62.015625 14.828125 -59.542969 C 11.460938 -57.074219 8.875 -53.703125 6.851562 -49.433594 C 4.832031 -45.050781 3.933594 -39.996094 3.933594 -34.265625 C 3.933594 -28.761719 4.605469 -23.929688 6.179688 -19.660156 C 7.75 -15.390625 9.660156 -12.019531 11.910156 -9.550781 C 14.15625 -7.078125 16.851562 -4.941406 19.996094 -3.371094 C 23.03125 -1.796875 25.953125 -0.675781 28.648438 -0.113281 C 31.34375 0.449219 34.042969 0.675781 36.738281 0.675781 Z M 36.738281 0.675781 "/></g></g></g><g fill="#5271ff" fill-opacity="1"><g transform="translate(190.701734, 677.302504)"><g><path d="M 48.984375 -26.515625 L 48.984375 -5.730469 C 48.984375 -4.15625 49.546875 -2.808594 50.667969 -1.683594 C 51.792969 -0.5625 53.140625 0 54.714844 0 C 56.285156 0 57.632812 -0.5625 58.757812 -1.683594 C 59.882812 -2.808594 60.441406 -4.15625 60.441406 -5.730469 L 60.441406 -60.554688 C 60.441406 -62.128906 59.882812 -63.476562 58.757812 -64.597656 C 57.632812 -65.722656 56.285156 -66.285156 54.714844 -66.285156 C 53.140625 -66.285156 51.792969 -65.722656 50.667969 -64.597656 C 49.546875 -63.476562 48.984375 -62.128906 48.984375 -60.554688 L 48.984375 -37.410156 L 18.199219 -37.410156 L 18.199219 -60.554688 C 18.199219 -62.128906 17.636719 -63.476562 16.515625 -64.597656 C 15.390625 -65.722656 14.042969 -66.285156 12.46875 -66.285156 C 10.898438 -66.285156 9.550781 -65.722656 8.425781 -64.597656 C 7.300781 -63.476562 6.742188 -62.128906 6.742188 -60.554688 L 6.742188 -5.730469 C 6.742188 -4.15625 7.300781 -2.808594 8.425781 -1.683594 C 9.550781 -0.5625 10.898438 0 12.46875 0 C 14.042969 0 15.390625 -0.5625 16.515625 -1.683594 C 17.636719 -2.808594 18.199219 -4.15625 18.199219 -5.730469 L 18.199219 -26.515625 Z M 48.984375 -26.515625 "/></g></g></g><g fill="#5271ff" fill-opacity="1"><g transform="translate(253.609539, 677.302504)"><g/></g></g><g fill="#ffffff" fill-opacity="1"><g transform="translate(271.670486, 677.302504)"><g><path d="M 17.636719 -5.730469 L 17.636719 -20.785156 L 37.300781 -20.785156 C 39.769531 -20.785156 42.242188 -21.121094 44.488281 -21.796875 C 46.738281 -22.46875 48.871094 -23.707031 51.003906 -25.390625 C 53.027344 -26.964844 54.714844 -29.433594 55.949219 -32.691406 C 57.183594 -35.839844 57.859375 -39.660156 57.859375 -44.152344 C 57.859375 -49.09375 56.734375 -53.253906 54.488281 -56.734375 C 52.242188 -60.21875 49.546875 -62.691406 46.511719 -64.148438 C 43.476562 -65.5 40.332031 -66.285156 36.960938 -66.285156 L 11.910156 -66.285156 C 10.335938 -66.285156 8.988281 -65.722656 7.863281 -64.597656 C 6.742188 -63.476562 6.179688 -62.128906 6.179688 -60.554688 L 6.179688 -5.730469 C 6.179688 -4.15625 6.742188 -2.808594 7.863281 -1.683594 C 8.988281 -0.5625 10.335938 0 11.910156 0 C 13.480469 0 14.828125 -0.5625 15.953125 -1.683594 C 17.078125 -2.808594 17.636719 -4.15625 17.636719 -5.730469 Z M 17.636719 -55.5 L 36.851562 -55.5 C 39.546875 -55.5 41.90625 -54.601562 43.703125 -52.914062 C 45.5 -51.117188 46.511719 -48.195312 46.511719 -44.152344 C 46.511719 -35.726562 43.253906 -31.570312 36.851562 -31.570312 L 17.636719 -31.570312 Z M 17.636719 -55.5 "/></g></g></g><g fill="#5271ff" fill-opacity="1"><g transform="translate(328.041416, 677.302504)"><g><path d="M 60.332031 -30.109375 L 60.332031 -60.554688 C 60.332031 -62.128906 59.769531 -63.476562 58.644531 -64.597656 C 57.523438 -65.722656 56.171875 -66.285156 54.601562 -66.285156 C 53.027344 -66.285156 51.679688 -65.722656 50.554688 -64.597656 C 49.433594 -63.476562 48.871094 -62.128906 48.871094 -60.554688 L 48.871094 -31.007812 C 48.871094 -17.1875 43.703125 -10.335938 33.480469 -10.335938 C 23.253906 -10.335938 18.199219 -17.1875 18.199219 -31.007812 L 18.199219 -60.554688 C 18.199219 -62.128906 17.636719 -63.476562 16.515625 -64.597656 C 15.390625 -65.722656 14.042969 -66.285156 12.46875 -66.285156 C 10.898438 -66.285156 9.550781 -65.722656 8.425781 -64.597656 C 7.300781 -63.476562 6.742188 -62.128906 6.742188 -60.554688 L 6.742188 -30.109375 C 6.742188 -9.550781 15.617188 0.675781 33.480469 0.675781 C 51.34375 0.675781 60.332031 -9.550781 60.332031 -30.109375 Z M 60.332031 -30.109375 "/></g></g></g><g fill="#5271ff" fill-opacity="1"><g transform="translate(390.836898, 677.302504)"><g><path d="M 37.972656 -55.386719 L 5.953125 -13.59375 C 4.941406 -12.359375 4.492188 -10.5625 4.492188 -8.089844 C 4.492188 -5.84375 5.28125 -3.933594 6.851562 -2.359375 C 8.425781 -0.785156 10.449219 0 12.695312 0 L 47.074219 0 C 48.535156 0 49.769531 -0.449219 50.894531 -1.574219 C 51.90625 -2.695312 52.464844 -3.933594 52.464844 -5.503906 C 52.464844 -6.964844 51.90625 -8.203125 50.894531 -9.210938 C 49.769531 -10.222656 48.535156 -10.785156 47.074219 -10.785156 L 18.199219 -10.785156 L 50.667969 -53.140625 C 51.792969 -54.488281 52.464844 -56.171875 52.464844 -58.195312 C 52.464844 -60.441406 51.679688 -62.351562 50.105469 -63.925781 C 48.535156 -65.5 46.625 -66.285156 44.378906 -66.285156 L 10 -66.285156 C 8.425781 -66.285156 7.191406 -65.722656 6.179688 -64.597656 C 5.054688 -63.476562 4.605469 -62.242188 4.605469 -60.78125 C 4.605469 -59.207031 5.054688 -57.972656 6.179688 -56.960938 C 7.191406 -55.835938 8.425781 -55.386719 10 -55.386719 Z M 37.972656 -55.386719 "/></g></g></g><g fill="#5271ff" fill-opacity="1"><g transform="translate(443.522037, 677.302504)"><g><path d="M 37.972656 -55.386719 L 5.953125 -13.59375 C 4.941406 -12.359375 4.492188 -10.5625 4.492188 -8.089844 C 4.492188 -5.84375 5.28125 -3.933594 6.851562 -2.359375 C 8.425781 -0.785156 10.449219 0 12.695312 0 L 47.074219 0 C 48.535156 0 49.769531 -0.449219 50.894531 -1.574219 C 51.90625 -2.695312 52.464844 -3.933594 52.464844 -5.503906 C 52.464844 -6.964844 51.90625 -8.203125 50.894531 -9.210938 C 49.769531 -10.222656 48.535156 -10.785156 47.074219 -10.785156 L 18.199219 -10.785156 L 50.667969 -53.140625 C 51.792969 -54.488281 52.464844 -56.171875 52.464844 -58.195312 C 52.464844 -60.441406 51.679688 -62.351562 50.105469 -63.925781 C 48.535156 -65.5 46.625 -66.285156 44.378906 -66.285156 L 10 -66.285156 C 8.425781 -66.285156 7.191406 -65.722656 6.179688 -64.597656 C 5.054688 -63.476562 4.605469 -62.242188 4.605469 -60.78125 C 4.605469 -59.207031 5.054688 -57.972656 6.179688 -56.960938 C 7.191406 -55.835938 8.425781 -55.386719 10 -55.386719 Z M 37.972656 -55.386719 "/></g></g></g><g fill="#5271ff" fill-opacity="1"><g transform="translate(496.207176, 677.302504)"><g><path d="M 12.132812 0 L 43.476562 0 C 44.828125 0 46.0625 -0.449219 47.1875 -1.574219 C 48.308594 -2.582031 48.871094 -3.820312 48.871094 -5.394531 C 48.871094 -6.851562 48.308594 -8.089844 47.1875 -9.210938 C 46.0625 -10.222656 44.828125 -10.785156 43.476562 -10.785156 L 18.199219 -10.785156 L 18.199219 -60.554688 C 18.199219 -62.128906 17.636719 -63.476562 16.515625 -64.597656 C 15.390625 -65.722656 14.042969 -66.285156 12.46875 -66.285156 C 10.898438 -66.285156 9.550781 -65.722656 8.425781 -64.597656 C 7.300781 -63.476562 6.742188 -62.128906 6.742188 -60.554688 L 6.742188 -5.394531 C 6.742188 -3.820312 7.191406 -2.582031 8.3125 -1.574219 C 9.324219 -0.449219 10.5625 0 12.132812 0 Z M 12.132812 0 "/></g></g></g><g fill="#5271ff" fill-opacity="1"><g transform="translate(544.73585, 677.302504)"><g><path d="M 6.742188 -60.890625 L 6.742188 -5.394531 C 6.742188 -3.820312 7.191406 -2.582031 8.3125 -1.574219 C 9.324219 -0.449219 10.5625 0 12.132812 0 L 45.949219 0 C 47.296875 0 48.535156 -0.449219 49.65625 -1.574219 C 50.78125 -2.582031 51.34375 -3.820312 51.34375 -5.394531 C 51.34375 -6.851562 50.78125 -8.089844 49.65625 -9.210938 C 48.535156 -10.222656 47.296875 -10.785156 45.949219 -10.785156 L 18.199219 -10.785156 L 18.199219 -26.515625 L 39.882812 -26.515625 C 41.230469 -26.515625 42.46875 -26.964844 43.589844 -28.085938 C 44.714844 -29.097656 45.277344 -30.332031 45.277344 -31.90625 C 45.277344 -33.367188 44.714844 -34.601562 43.589844 -35.726562 C 42.46875 -36.738281 41.230469 -37.300781 39.882812 -37.300781 L 18.199219 -37.300781 L 18.199219 -55.5 L 45.949219 -55.5 C 47.296875 -55.5 48.535156 -55.949219 49.65625 -57.074219 C 50.78125 -58.082031 51.34375 -59.320312 51.34375 -60.890625 C 51.34375 -62.351562 50.78125 -63.589844 49.65625 -64.710938 C 48.535156 -65.722656 47.296875 -66.285156 45.949219 -66.285156 L 12.132812 -66.285156 C 10.5625 -66.285156 9.324219 -65.722656 8.3125 -64.710938 C 7.191406 -63.589844 6.742188 -62.351562 6.742188 -60.890625 Z M 6.742188 -60.890625 "/></g></g></g><g fill="#5271ff" fill-opacity="1"><g transform="translate(597.421002, 677.302504)"><g/></g></g><g fill="#ffffff" fill-opacity="1"><g transform="translate(615.490173, 677.302504)"><g><path d="M 17.636719 -5.730469 L 17.636719 -20.785156 L 37.300781 -20.785156 C 39.769531 -20.785156 42.242188 -21.121094 44.488281 -21.796875 C 46.738281 -22.46875 48.871094 -23.707031 51.003906 -25.390625 C 53.027344 -26.964844 54.714844 -29.433594 55.949219 -32.691406 C 57.183594 -35.839844 57.859375 -39.660156 57.859375 -44.152344 C 57.859375 -49.09375 56.734375 -53.253906 54.488281 -56.734375 C 52.242188 -60.21875 49.546875 -62.691406 46.511719 -64.148438 C 43.476562 -65.5 40.332031 -66.285156 36.960938 -66.285156 L 11.910156 -66.285156 C 10.335938 -66.285156 8.988281 -65.722656 7.863281 -64.597656 C 6.742188 -63.476562 6.179688 -62.128906 6.179688 -60.554688 L 6.179688 -5.730469 C 6.179688 -4.15625 6.742188 -2.808594 7.863281 -1.683594 C 8.988281 -0.5625 10.335938 0 11.910156 0 C 13.480469 0 14.828125 -0.5625 15.953125 -1.683594 C 17.078125 -2.808594 17.636719 -4.15625 17.636719 -5.730469 Z M 17.636719 -55.5 L 36.851562 -55.5 C 39.546875 -55.5 41.90625 -54.601562 43.703125 -52.914062 C 45.5 -51.117188 46.511719 -48.195312 46.511719 -44.152344 C 46.511719 -35.726562 43.253906 -31.570312 36.851562 -31.570312 L 17.636719 -31.570312 Z M 17.636719 -55.5 "/></g></g></g><g fill="#5271ff" fill-opacity="1"><g transform="translate(671.86112, 677.302504)"><g><path d="M 6.742188 -60.554688 L 6.742188 -5.730469 C 6.742188 -4.15625 7.300781 -2.808594 8.425781 -1.683594 C 9.550781 -0.5625 10.898438 0 12.46875 0 C 14.042969 0 15.390625 -0.5625 16.515625 -1.683594 C 17.636719 -2.808594 18.199219 -4.15625 18.199219 -5.730469 L 18.199219 -60.554688 C 18.199219 -62.128906 17.636719 -63.476562 16.515625 -64.597656 C 15.390625 -65.722656 14.042969 -66.285156 12.46875 -66.285156 C 10.898438 -66.285156 9.550781 -65.722656 8.425781 -64.597656 C 7.300781 -63.476562 6.742188 -62.128906 6.742188 -60.554688 Z M 6.742188 -60.554688 "/></g></g></g><g fill="#5271ff" fill-opacity="1"><g transform="translate(692.530224, 677.302504)"><g><path d="M 36.738281 0.675781 C 43.367188 0.675781 49.09375 -0.675781 53.925781 -3.59375 C 55.722656 -4.492188 56.621094 -6.066406 56.621094 -8.203125 C 56.621094 -9.550781 56.0625 -10.785156 54.9375 -11.910156 C 53.8125 -12.917969 52.578125 -13.480469 51.230469 -13.480469 C 50.445312 -13.480469 49.65625 -13.257812 48.984375 -12.917969 C 45.5 -11.121094 41.34375 -10.335938 36.625 -10.335938 C 34.714844 -10.335938 32.917969 -10.449219 31.234375 -10.785156 C 29.546875 -11.011719 27.75 -11.683594 25.726562 -12.695312 C 23.707031 -13.707031 21.90625 -15.054688 20.445312 -16.628906 C 18.988281 -18.199219 17.75 -20.558594 16.851562 -23.480469 C 15.839844 -26.402344 15.390625 -29.882812 15.390625 -33.929688 C 15.390625 -38.199219 15.953125 -41.792969 17.1875 -44.828125 C 18.425781 -47.859375 20.109375 -50.105469 22.355469 -51.679688 C 24.492188 -53.140625 26.738281 -54.152344 28.984375 -54.824219 C 31.234375 -55.5 33.816406 -55.835938 36.625 -55.835938 C 41.34375 -55.835938 45.5 -54.9375 48.984375 -53.253906 C 49.65625 -52.804688 50.445312 -52.691406 51.230469 -52.691406 C 52.578125 -52.691406 53.8125 -53.140625 54.9375 -54.261719 C 56.0625 -55.273438 56.621094 -56.511719 56.621094 -57.972656 C 56.621094 -59.992188 55.722656 -61.566406 53.925781 -62.578125 C 49.09375 -65.386719 43.367188 -66.847656 36.738281 -66.847656 C 32.804688 -66.847656 28.984375 -66.171875 25.277344 -65.050781 C 21.570312 -63.8125 18.085938 -62.015625 14.828125 -59.542969 C 11.460938 -57.074219 8.875 -53.703125 6.851562 -49.433594 C 4.832031 -45.050781 3.933594 -39.996094 3.933594 -34.265625 C 3.933594 -28.761719 4.605469 -23.929688 6.179688 -19.660156 C 7.75 -15.390625 9.660156 -12.019531 11.910156 -9.550781 C 14.15625 -7.078125 16.851562 -4.941406 19.996094 -3.371094 C 23.03125 -1.796875 25.953125 -0.675781 28.648438 -0.113281 C 31.34375 0.449219 34.042969 0.675781 36.738281 0.675781 Z M 36.738281 0.675781 "/></g></g></g><g fill="#5271ff" fill-opacity="1"><g transform="translate(749.371854, 677.302504)"><g><path d="M 18.199219 -36.289062 L 18.199219 -60.554688 C 18.199219 -62.128906 17.636719 -63.476562 16.515625 -64.597656 C 15.390625 -65.722656 14.042969 -66.285156 12.46875 -66.285156 C 10.898438 -66.285156 9.550781 -65.722656 8.425781 -64.597656 C 7.300781 -63.476562 6.742188 -62.128906 6.742188 -60.554688 L 6.742188 -5.730469 C 6.742188 -4.15625 7.300781 -2.808594 8.425781 -1.683594 C 9.550781 -0.5625 10.898438 0 12.46875 0 C 14.042969 0 15.390625 -0.5625 16.515625 -1.683594 C 17.636719 -2.808594 18.199219 -4.15625 18.199219 -5.730469 L 18.199219 -31.570312 L 45.5 -2.023438 C 46.625 -0.675781 47.972656 0 49.769531 0 C 51.230469 0 52.464844 -0.449219 53.589844 -1.574219 C 54.601562 -2.695312 55.164062 -3.933594 55.164062 -5.503906 C 55.164062 -6.851562 54.714844 -7.976562 53.8125 -9.101562 L 31.570312 -33.703125 L 53.703125 -57.183594 C 54.601562 -58.195312 55.050781 -59.429688 55.050781 -60.78125 C 55.050781 -62.242188 54.488281 -63.476562 53.476562 -64.597656 C 52.355469 -65.722656 51.117188 -66.285156 49.65625 -66.285156 C 47.859375 -66.285156 46.511719 -65.609375 45.386719 -64.261719 C 42.691406 -61.339844 38.199219 -56.847656 31.90625 -50.554688 C 25.613281 -44.265625 21.007812 -39.433594 18.199219 -36.289062 Z M 18.199219 -36.289062 "/></g></g></g><g fill="#5271ff" fill-opacity="1"><g transform="translate(307.640303, 756.431987)"><g><path d="M 9.496094 -3.085938 L 9.496094 -11.1875 L 20.078125 -11.1875 C 21.40625 -11.1875 22.738281 -11.371094 23.949219 -11.730469 C 25.15625 -12.09375 26.304688 -12.761719 27.457031 -13.667969 C 28.542969 -14.515625 29.449219 -15.84375 30.117188 -17.597656 C 30.78125 -19.292969 31.144531 -21.347656 31.144531 -23.765625 C 31.144531 -26.425781 30.539062 -28.664062 29.332031 -30.539062 C 28.121094 -32.414062 26.667969 -33.746094 25.035156 -34.53125 C 23.402344 -35.257812 21.710938 -35.679688 19.894531 -35.679688 L 6.410156 -35.679688 C 5.5625 -35.679688 4.839844 -35.378906 4.234375 -34.773438 C 3.628906 -34.167969 3.324219 -33.441406 3.324219 -32.597656 L 3.324219 -3.085938 C 3.324219 -2.238281 3.628906 -1.511719 4.234375 -0.90625 C 4.839844 -0.300781 5.5625 0 6.410156 0 C 7.257812 0 7.984375 -0.300781 8.585938 -0.90625 C 9.191406 -1.511719 9.496094 -2.238281 9.496094 -3.085938 Z M 9.496094 -29.875 L 19.835938 -29.875 C 21.285156 -29.875 22.558594 -29.390625 23.523438 -28.484375 C 24.492188 -27.515625 25.035156 -25.945312 25.035156 -23.765625 C 25.035156 -19.230469 23.28125 -16.992188 19.835938 -16.992188 L 9.496094 -16.992188 Z M 9.496094 -29.875 "/></g></g></g><g fill="#5271ff" fill-opacity="1"><g transform="translate(388.678756, 756.431987)"><g><path d="M 9.496094 -3.085938 L 9.496094 -11.1875 L 20.078125 -11.1875 C 21.40625 -11.1875 22.738281 -11.371094 23.949219 -11.730469 C 25.15625 -12.09375 26.304688 -12.761719 27.457031 -13.667969 C 28.542969 -14.515625 29.449219 -15.84375 30.117188 -17.597656 C 30.78125 -19.292969 31.144531 -21.347656 31.144531 -23.765625 C 31.144531 -26.425781 30.539062 -28.664062 29.332031 -30.539062 C 28.121094 -32.414062 26.667969 -33.746094 25.035156 -34.53125 C 23.402344 -35.257812 21.710938 -35.679688 19.894531 -35.679688 L 6.410156 -35.679688 C 5.5625 -35.679688 4.839844 -35.378906 4.234375 -34.773438 C 3.628906 -34.167969 3.324219 -33.441406 3.324219 -32.597656 L 3.324219 -3.085938 C 3.324219 -2.238281 3.628906 -1.511719 4.234375 -0.90625 C 4.839844 -0.300781 5.5625 0 6.410156 0 C 7.257812 0 7.984375 -0.300781 8.585938 -0.90625 C 9.191406 -1.511719 9.496094 -2.238281 9.496094 -3.085938 Z M 9.496094 -29.875 L 19.835938 -29.875 C 21.285156 -29.875 22.558594 -29.390625 23.523438 -28.484375 C 24.492188 -27.515625 25.035156 -25.945312 25.035156 -23.765625 C 25.035156 -19.230469 23.28125 -16.992188 19.835938 -16.992188 L 9.496094 -16.992188 Z M 9.496094 -29.875 "/></g></g></g><g fill="#5271ff" fill-opacity="1"><g transform="translate(469.717208, 756.431987)"><g><path d="M 9.496094 -3.085938 L 9.496094 -11.1875 L 20.078125 -11.1875 C 21.40625 -11.1875 22.738281 -11.371094 23.949219 -11.730469 C 25.15625 -12.09375 26.304688 -12.761719 27.457031 -13.667969 C 28.542969 -14.515625 29.449219 -15.84375 30.117188 -17.597656 C 30.78125 -19.292969 31.144531 -21.347656 31.144531 -23.765625 C 31.144531 -26.425781 30.539062 -28.664062 29.332031 -30.539062 C 28.121094 -32.414062 26.667969 -33.746094 25.035156 -34.53125 C 23.402344 -35.257812 21.710938 -35.679688 19.894531 -35.679688 L 6.410156 -35.679688 C 5.5625 -35.679688 4.839844 -35.378906 4.234375 -34.773438 C 3.628906 -34.167969 3.324219 -33.441406 3.324219 -32.597656 L 3.324219 -3.085938 C 3.324219 -2.238281 3.628906 -1.511719 4.234375 -0.90625 C 4.839844 -0.300781 5.5625 0 6.410156 0 C 7.257812 0 7.984375 -0.300781 8.585938 -0.90625 C 9.191406 -1.511719 9.496094 -2.238281 9.496094 -3.085938 Z M 9.496094 -29.875 L 19.835938 -29.875 C 21.285156 -29.875 22.558594 -29.390625 23.523438 -28.484375 C 24.492188 -27.515625 25.035156 -25.945312 25.035156 -23.765625 C 25.035156 -19.230469 23.28125 -16.992188 19.835938 -16.992188 L 9.496094 -16.992188 Z M 9.496094 -29.875 "/></g></g></g><g clip-path="url(#c93f364afc)"><path fill="#80b2df" d="M 545.9375 288.253906 C 545.9375 289.761719 545.898438 291.269531 545.824219 292.777344 C 545.75 294.289062 545.640625 295.792969 545.492188 297.292969 C 545.34375 298.796875 545.160156 300.296875 544.9375 301.789062 C 544.714844 303.28125 544.457031 304.769531 544.164062 306.25 C 543.871094 307.730469 543.539062 309.203125 543.171875 310.667969 C 542.804688 312.132812 542.402344 313.585938 541.964844 315.03125 C 541.527344 316.476562 541.050781 317.910156 540.542969 319.332031 C 540.035156 320.753906 539.492188 322.160156 538.914062 323.554688 C 538.335938 324.949219 537.726562 326.328125 537.078125 327.695312 C 536.433594 329.058594 535.753906 330.40625 535.042969 331.738281 C 534.332031 333.070312 533.589844 334.382812 532.8125 335.679688 C 532.035156 336.972656 531.226562 338.25 530.390625 339.503906 C 529.550781 340.757812 528.679688 341.992188 527.78125 343.207031 C 526.882812 344.417969 525.953125 345.609375 524.996094 346.777344 C 524.039062 347.941406 523.054688 349.085938 522.039062 350.203125 C 521.023438 351.324219 519.984375 352.414062 518.917969 353.484375 C 517.847656 354.550781 516.757812 355.589844 515.636719 356.605469 C 514.519531 357.621094 513.375 358.605469 512.210938 359.5625 C 511.042969 360.519531 509.851562 361.449219 508.640625 362.347656 C 507.425781 363.246094 506.191406 364.117188 504.9375 364.957031 C 503.683594 365.792969 502.40625 366.601562 501.113281 367.378906 C 499.816406 368.15625 498.503906 368.898438 497.171875 369.609375 C 495.839844 370.320312 494.492188 371 493.128906 371.644531 C 491.761719 372.292969 490.382812 372.902344 488.988281 373.480469 C 487.59375 374.058594 486.1875 374.601562 484.765625 375.109375 C 483.34375 375.617188 481.910156 376.09375 480.464844 376.53125 C 479.019531 376.96875 477.566406 377.371094 476.101562 377.738281 C 474.636719 378.105469 473.164062 378.4375 471.683594 378.730469 C 470.203125 379.023438 468.714844 379.28125 467.222656 379.503906 C 465.730469 379.726562 464.230469 379.910156 462.726562 380.058594 C 461.226562 380.207031 459.722656 380.316406 458.210938 380.390625 C 456.703125 380.464844 455.195312 380.503906 453.6875 380.503906 C 452.175781 380.503906 450.667969 380.464844 449.160156 380.390625 C 447.652344 380.316406 446.148438 380.207031 444.644531 380.058594 C 443.140625 379.910156 441.644531 379.726562 440.152344 379.503906 C 438.65625 379.28125 437.171875 379.023438 435.6875 378.730469 C 434.207031 378.4375 432.734375 378.105469 431.269531 377.738281 C 429.808594 377.371094 428.351562 376.96875 426.90625 376.53125 C 425.460938 376.09375 424.03125 375.617188 422.609375 375.109375 C 421.1875 374.601562 419.777344 374.058594 418.382812 373.480469 C 416.988281 372.902344 415.609375 372.292969 414.246094 371.644531 C 412.878906 371 411.53125 370.320312 410.199219 369.609375 C 408.867188 368.898438 407.554688 368.15625 406.261719 367.378906 C 404.964844 366.601562 403.691406 365.792969 402.433594 364.957031 C 401.179688 364.117188 399.945312 363.246094 398.734375 362.347656 C 397.519531 361.449219 396.332031 360.519531 395.164062 359.5625 C 393.996094 358.605469 392.855469 357.621094 391.734375 356.605469 C 390.617188 355.589844 389.523438 354.550781 388.457031 353.484375 C 387.386719 352.414062 386.347656 351.324219 385.332031 350.203125 C 384.320312 349.085938 383.332031 347.941406 382.375 346.777344 C 381.417969 345.609375 380.488281 344.417969 379.589844 343.207031 C 378.691406 341.992188 377.820312 340.757812 376.984375 339.503906 C 376.144531 338.25 375.335938 336.972656 374.5625 335.679688 C 373.785156 334.382812 373.039062 333.070312 372.328125 331.738281 C 371.617188 330.40625 370.9375 329.058594 370.292969 327.695312 C 369.648438 326.328125 369.035156 324.949219 368.457031 323.554688 C 367.878906 322.160156 367.335938 320.753906 366.828125 319.332031 C 366.320312 317.910156 365.847656 316.476562 365.410156 315.03125 C 364.96875 313.585938 364.566406 312.132812 364.199219 310.667969 C 363.835938 309.203125 363.503906 307.730469 363.207031 306.25 C 362.914062 304.769531 362.65625 303.28125 362.433594 301.789062 C 362.214844 300.296875 362.027344 298.796875 361.878906 297.292969 C 361.734375 295.792969 361.621094 294.289062 361.546875 292.777344 C 361.472656 291.269531 361.4375 289.761719 361.4375 288.253906 C 361.4375 286.742188 361.472656 285.234375 361.546875 283.726562 C 361.621094 282.21875 361.734375 280.714844 361.878906 279.210938 C 362.027344 277.707031 362.214844 276.210938 362.433594 274.71875 C 362.65625 273.222656 362.914062 271.738281 363.207031 270.253906 C 363.503906 268.773438 363.835938 267.300781 364.199219 265.835938 C 364.566406 264.375 364.96875 262.917969 365.410156 261.472656 C 365.847656 260.03125 366.320312 258.597656 366.828125 257.175781 C 367.335938 255.753906 367.878906 254.34375 368.457031 252.949219 C 369.035156 251.554688 369.648438 250.175781 370.292969 248.8125 C 370.9375 247.445312 371.617188 246.097656 372.328125 244.765625 C 373.039062 243.433594 373.785156 242.121094 374.5625 240.828125 C 375.335938 239.53125 376.144531 238.257812 376.984375 237 C 377.820312 235.746094 378.691406 234.511719 379.589844 233.300781 C 380.488281 232.085938 381.417969 230.898438 382.375 229.730469 C 383.332031 228.5625 384.320312 227.421875 385.332031 226.300781 C 386.347656 225.183594 387.386719 224.089844 388.457031 223.023438 C 389.523438 221.953125 390.617188 220.914062 391.734375 219.898438 C 392.855469 218.886719 393.996094 217.898438 395.164062 216.941406 C 396.332031 215.984375 397.519531 215.054688 398.734375 214.15625 C 399.945312 213.257812 401.179688 212.386719 402.433594 211.550781 C 403.691406 210.710938 404.964844 209.902344 406.261719 209.128906 C 407.554688 208.351562 408.867188 207.605469 410.199219 206.894531 C 411.53125 206.183594 412.878906 205.503906 414.246094 204.859375 C 415.609375 204.214844 416.988281 203.601562 418.382812 203.023438 C 419.777344 202.445312 421.1875 201.902344 422.609375 201.394531 C 424.03125 200.886719 425.460938 200.414062 426.90625 199.976562 C 428.351562 199.535156 429.808594 199.132812 431.269531 198.765625 C 432.734375 198.402344 434.207031 198.070312 435.6875 197.773438 C 437.171875 197.480469 438.65625 197.222656 440.152344 197 C 441.644531 196.78125 443.140625 196.59375 444.644531 196.445312 C 446.148438 196.300781 447.652344 196.1875 449.160156 196.113281 C 450.667969 196.039062 452.175781 196.003906 453.6875 196.003906 C 455.195312 196.003906 456.703125 196.039062 458.210938 196.113281 C 459.722656 196.1875 461.226562 196.300781 462.726562 196.445312 C 464.230469 196.59375 465.730469 196.78125 467.222656 197 C 468.714844 197.222656 470.203125 197.480469 471.683594 197.773438 C 473.164062 198.070312 474.636719 198.402344 476.101562 198.765625 C 477.566406 199.132812 479.019531 199.535156 480.464844 199.976562 C 481.910156 200.414062 483.34375 200.886719 484.765625 201.394531 C 486.1875 201.902344 487.59375 202.445312 488.988281 203.023438 C 490.382812 203.601562 491.761719 204.214844 493.128906 204.859375 C 494.492188 205.503906 495.839844 206.183594 497.171875 206.894531 C 498.503906 207.605469 499.816406 208.351562 501.113281 209.128906 C 502.40625 209.902344 503.683594 210.710938 504.9375 211.550781 C 506.191406 212.386719 507.425781 213.257812 508.640625 214.15625 C 509.851562 215.054688 511.042969 215.984375 512.210938 216.941406 C 513.375 217.898438 514.519531 218.886719 515.636719 219.898438 C 516.757812 220.914062 517.847656 221.953125 518.917969 223.023438 C 519.984375 224.089844 521.023438 225.183594 522.039062 226.300781 C 523.054688 227.421875 524.039062 228.5625 524.996094 229.730469 C 525.953125 230.898438 526.882812 232.085938 527.78125 233.300781 C 528.679688 234.511719 529.550781 235.746094 530.390625 237 C 531.226562 238.257812 532.035156 239.53125 532.8125 240.828125 C 533.589844 242.121094 534.332031 243.433594 535.042969 244.765625 C 535.753906 246.097656 536.433594 247.445312 537.078125 248.8125 C 537.726562 250.175781 538.335938 251.554688 538.914062 252.949219 C 539.492188 254.34375 540.035156 255.753906 540.542969 257.175781 C 541.050781 258.597656 541.527344 260.03125 541.964844 261.472656 C 542.402344 262.917969 542.804688 264.375 543.171875 265.835938 C 543.539062 267.300781 543.871094 268.773438 544.164062 270.253906 C 544.457031 271.738281 544.714844 273.222656 544.9375 274.71875 C 545.160156 276.210938 545.34375 277.707031 545.492188 279.210938 C 545.640625 280.714844 545.75 282.21875 545.824219 283.726562 C 545.898438 285.234375 545.9375 286.742188 545.9375 288.253906 Z M 545.9375 288.253906 " fill-opacity="1" fill-rule="nonzero"/></g><g clip-path="url(#6c3f5ad73f)"><g clip-path="url(#bb1e18eb70)"><g clip-path="url(#125a02547e)"><path fill="#ffffff" d="M 500.726562 348.074219 C 500.726562 348.074219 499.980469 338.632812 499.914062 337.996094 C 499.835938 337.308594 498.414062 329.308594 496.265625 325.566406 C 495.214844 323.757812 491.070312 319.660156 490.101562 319.453125 C 490.574219 318.3125 489.03125 318.078125 488.199219 317.917969 C 482.796875 316.875 482.589844 316.371094 480.824219 315.136719 C 480.410156 314.855469 479.976562 314.535156 479.746094 314.554688 C 479.355469 314.605469 478.960938 314.527344 478.574219 314.621094 C 478.335938 314.675781 478.167969 314.46875 477.984375 314.359375 C 477.179688 313.886719 475.496094 313.226562 474.273438 313.050781 C 473.386719 312.902344 472.667969 312.332031 471.847656 312.011719 C 471.257812 311.789062 470.636719 311.679688 470.035156 311.511719 C 468.3125 311.054688 467.003906 309.921875 465.316406 310.164062 C 465.285156 310.261719 465.253906 310.363281 465.226562 310.460938 C 465.128906 310.425781 463.203125 309.375 461.71875 307.804688 C 460.554688 306.464844 459.761719 305.566406 459.582031 302.351562 C 459.355469 299.03125 460.097656 291.707031 460.535156 291.070312 C 463.578125 287.128906 462.578125 284.386719 462.941406 281.476562 C 464.378906 281.78125 463.960938 281 466.628906 276.796875 C 467.5625 275.3125 468.59375 274.488281 469.402344 269.15625 C 469.539062 268.191406 469.707031 266.933594 469 266.453125 C 468.214844 265.9375 467.34375 266.179688 466.488281 266.554688 C 466.445312 266.171875 466.386719 265.792969 466.347656 265.410156 C 466.40625 265.535156 466.457031 265.671875 466.554688 265.777344 C 466.554688 265.777344 466.519531 265.171875 466.511719 264.195312 C 466.574219 264.46875 466.582031 264.746094 466.632812 265.023438 C 466.816406 264.542969 466.558594 264.136719 466.804688 263.703125 C 467.050781 262.996094 466.835938 263.207031 466.726562 261.902344 C 466.839844 262.066406 466.917969 262.253906 467.046875 262.40625 C 466.996094 262 467.066406 261.578125 466.921875 261.1875 C 466.894531 260.953125 467.128906 260.800781 467.175781 260.589844 C 467.207031 260.453125 467.144531 260.324219 467.109375 260.195312 C 467.144531 260.0625 467.226562 259.945312 467.265625 259.8125 C 467.210938 259.597656 467.136719 259.386719 467.070312 259.171875 C 467.21875 259.308594 467.347656 259.46875 467.496094 259.609375 C 467.367188 259.367188 467.105469 258.726562 467.28125 258.511719 C 467.363281 258.273438 467.199219 258.042969 467.09375 257.839844 C 467.210938 257.71875 467.285156 257.566406 467.335938 257.40625 C 467.253906 257.199219 467.175781 256.992188 467.09375 256.789062 C 467.222656 256.847656 467.351562 256.902344 467.484375 256.949219 C 467.375 256.828125 467.425781 256.648438 467.492188 256.515625 C 467.523438 256.445312 467.792969 256.28125 467.347656 255.761719 C 467.328125 255.59375 467.457031 255.453125 467.535156 255.316406 C 467.84375 255.523438 468.046875 255.847656 468.222656 256.164062 C 468.074219 255.5 467.382812 254.605469 466.945312 254.082031 C 467.453125 254.121094 467.984375 254.960938 468.242188 255.398438 C 468.222656 255.089844 467.914062 254.261719 466.808594 253.40625 C 466.980469 253.453125 467.15625 253.460938 467.335938 253.457031 C 466.875 253.164062 466.484375 252.773438 466.160156 252.335938 C 466.351562 252.488281 466.554688 252.628906 466.757812 252.761719 C 466.484375 252.449219 466.273438 252.082031 466.089844 251.710938 C 466.335938 251.839844 466.578125 251.976562 466.828125 252.097656 C 465.941406 251.039062 466.144531 251.703125 465.445312 250.351562 C 465.839844 250.433594 465.882812 250.574219 466.167969 250.574219 C 465.792969 250.402344 465.421875 249.789062 465.367188 249.714844 C 465.558594 249.691406 465.746094 249.625 465.910156 249.523438 C 464.761719 249.265625 464.886719 249.359375 463.589844 248.148438 C 463.785156 248.273438 463.984375 248.390625 464.195312 248.484375 C 463.894531 248.109375 463.570312 247.75 463.277344 247.371094 C 463.472656 247.480469 463.648438 247.617188 463.84375 247.730469 C 462.699219 246.066406 463.925781 247.445312 462.15625 245.726562 C 462.027344 245.601562 461.847656 245.546875 461.714844 245.425781 C 461.5 245.222656 461.367188 245.457031 461.113281 244.851562 C 461.414062 244.898438 461.703125 245.023438 461.929688 245.230469 C 461.675781 244.808594 460.75 244.351562 460.304688 244.144531 C 460.304688 244.136719 460.308594 244.117188 460.308594 244.109375 C 460.570312 244.007812 460.863281 244.070312 461.125 244.15625 C 460.800781 243.84375 460.023438 243.800781 459.808594 243.777344 C 459.554688 243.589844 459.402344 243.296875 459.230469 243.035156 C 458.972656 243.050781 458.714844 243.089844 458.457031 243.0625 C 458.371094 242.894531 458.285156 242.726562 458.195312 242.558594 C 458.347656 242.257812 458.625 242.042969 458.929688 241.90625 C 457.921875 242.097656 457.578125 242.632812 457.347656 242.25 C 457.238281 242.0625 457.453125 241.851562 457.347656 241.664062 C 457.214844 241.523438 456.964844 241.644531 456.832031 241.488281 C 456.734375 241.351562 456.863281 241.171875 456.789062 241.03125 C 456.683594 241.042969 456.570312 241.097656 456.464844 241.054688 C 456.390625 240.84375 456.824219 240.558594 457.117188 240.425781 C 456.691406 240.488281 456.265625 240.570312 455.835938 240.636719 C 455.960938 240.503906 456.113281 240.390625 456.285156 240.320312 C 456.324219 240.300781 456.371094 240.285156 456.394531 240.246094 C 455.878906 240.238281 455.214844 240.625 454.816406 240.832031 C 454.890625 240.5625 455.132812 240.410156 455.359375 240.277344 C 455.085938 240.210938 454.777344 240.527344 454.480469 240.8125 C 454.628906 240.519531 454.320312 240.378906 452.996094 239.171875 C 453.121094 239.375 453.21875 239.597656 453.335938 239.804688 C 453.191406 239.785156 453.054688 239.84375 452.929688 239.90625 C 452.664062 239.300781 451.398438 238.363281 450.855469 237.980469 C 451.339844 238.492188 451.761719 239.070312 452.074219 239.707031 C 451.832031 239.5625 451.542969 239.523438 451.269531 239.476562 C 450.988281 238.9375 450.398438 238.234375 449.792969 238.171875 C 450.277344 238.652344 450.695312 239.328125 450.78125 239.574219 C 450.449219 239.492188 450.113281 239.414062 449.777344 239.371094 C 449.640625 239.351562 449.527344 239.269531 449.394531 239.242188 C 449.097656 239.207031 448.796875 239.195312 448.503906 239.152344 C 448.210938 238.785156 447.910156 238.414062 447.53125 238.128906 C 447.792969 238.398438 447.96875 238.742188 448.078125 239.097656 C 447.351562 239.457031 447.355469 239.691406 447.085938 239.34375 C 447.039062 239.125 447.058594 238.898438 447.019531 238.675781 C 446.851562 238.78125 446.804688 238.996094 446.8125 239.179688 C 446.808594 239.285156 446.871094 239.375 446.902344 239.472656 C 446.734375 239.5625 446.53125 239.457031 446.355469 239.429688 C 446.367188 239.101562 445.976562 238.800781 445.695312 238.640625 C 446.148438 239.164062 445.847656 239.21875 445.890625 239.539062 C 445.800781 239.671875 445.234375 239.820312 445.023438 239.699219 C 444.875 239.609375 444.6875 239.507812 444.671875 239.316406 C 444.574219 239.101562 444.328125 239.023438 444.121094 238.964844 C 444.242188 239.070312 444.40625 239.203125 444.085938 239.53125 C 443.765625 239.527344 443.441406 239.488281 443.128906 239.40625 C 442.921875 239.152344 442.605469 238.542969 442.15625 238.34375 C 442.714844 238.792969 442.773438 239.351562 443.042969 239.632812 C 442.867188 239.644531 442.691406 239.625 442.523438 239.585938 C 442.066406 239.320312 441.378906 239.085938 440.871094 239.042969 C 441.183594 239.214844 441.480469 239.417969 441.722656 239.679688 C 441.464844 239.699219 441.214844 239.738281 440.957031 239.757812 C 440.335938 239.503906 439.449219 239.496094 438.945312 239.671875 C 439.378906 239.703125 439.8125 239.792969 440.207031 239.96875 C 439.117188 239.949219 438.984375 239.75 437.828125 240.546875 C 437.988281 240.570312 438.183594 240.535156 438.265625 241.128906 C 438.09375 240.949219 437.851562 240.878906 437.621094 240.828125 C 437.851562 241.09375 437.832031 241.488281 438.058594 241.761719 C 438.054688 241.769531 438.054688 241.792969 438.054688 241.804688 C 437.929688 241.796875 437.699219 241.761719 437.585938 241.703125 C 437.054688 241.125 435.328125 240.304688 434.621094 239.984375 C 434.996094 240.328125 435.375 240.671875 435.734375 241.035156 C 435.03125 240.460938 434.335938 240.351562 433.976562 240.433594 C 434.96875 240.558594 436.046875 241.824219 436.621094 242.648438 C 436.328125 242.324219 435.914062 242.132812 435.488281 242.066406 C 435.90625 242.296875 436.304688 243.042969 436.40625 243.28125 C 435.855469 242.597656 434.378906 241.796875 433.585938 241.421875 C 433.9375 241.667969 434.273438 241.945312 434.558594 242.273438 C 434.148438 242.011719 433.171875 241.707031 433.03125 241.691406 C 433.625 241.960938 434.15625 242.347656 434.667969 242.746094 C 433.671875 242.183594 431.328125 241.742188 431.140625 241.742188 C 432.203125 242.152344 433.230469 242.640625 434.253906 243.128906 C 434.078125 243.136719 432.789062 242.75 430.527344 243.40625 C 431.113281 243.328125 431.703125 243.265625 432.292969 243.285156 C 431.3125 243.347656 429.894531 243.945312 429.007812 244.367188 C 429.253906 244.355469 429.5 244.308594 429.742188 244.339844 C 429.757812 244.347656 429.789062 244.367188 429.800781 244.378906 C 429.398438 244.660156 428.972656 244.902344 428.550781 245.15625 C 428.5 244.816406 428.25 244.40625 427.828125 244.355469 C 428.121094 244.777344 428.160156 244.980469 428.332031 245.132812 C 428.207031 245.410156 427.988281 245.628906 427.792969 245.851562 C 427.445312 245.792969 427.109375 245.964844 426.835938 246.164062 C 426.972656 246.140625 427.136719 246.074219 427.253906 246.175781 C 427.421875 246.359375 427.066406 246.960938 426.757812 246.941406 C 426.84375 247.0625 426.898438 247.199219 426.933594 247.339844 C 426.464844 247.257812 426.007812 247.453125 425.609375 247.683594 C 425.769531 247.664062 426.234375 247.453125 426.960938 247.777344 C 426.621094 247.75 426.324219 247.945312 426.039062 248.097656 C 426.230469 248.082031 426.445312 248.074219 426.613281 248.183594 C 426.722656 248.246094 426.640625 248.195312 426.425781 249.414062 C 426.28125 249.164062 426.054688 248.972656 425.785156 248.871094 C 425.917969 249.035156 425.988281 249.230469 426.050781 249.429688 C 425.90625 249.277344 425.695312 249.234375 425.496094 249.214844 C 425.617188 249.433594 425.746094 249.660156 425.929688 249.832031 C 426.042969 249.96875 426.160156 249.746094 426.25 250.09375 C 425.976562 250.355469 425.710938 250.625 425.445312 250.894531 C 425.734375 250.71875 425.996094 250.492188 426.3125 250.363281 C 426.230469 250.628906 426.152344 250.898438 426.085938 251.171875 C 425.769531 251.207031 425.507812 251.414062 425.261719 251.601562 C 425.507812 251.621094 425.753906 251.609375 426 251.625 C 425.761719 251.65625 425.539062 251.777344 425.378906 251.953125 C 425.523438 251.910156 425.707031 251.820312 425.886719 252.191406 C 425.535156 252.417969 424.886719 253.183594 424.765625 253.347656 C 425.097656 253.066406 425.386719 252.738281 425.753906 252.503906 C 425.828125 253.199219 425.222656 253.488281 424.984375 254.15625 C 425.210938 253.933594 425.304688 253.605469 425.53125 253.382812 C 425.484375 253.699219 425.40625 254.011719 425.296875 254.3125 C 425.699219 254.738281 425.558594 254.820312 425.15625 255.285156 C 425.238281 255.257812 425.328125 255.242188 425.414062 255.238281 C 425.332031 255.394531 425.441406 255.828125 425.554688 256.34375 C 425.367188 256.910156 425.207031 257.484375 425.0625 258.0625 C 425.078125 258.089844 425.101562 258.144531 425.113281 258.171875 C 425.160156 257.84375 425.257812 257.515625 425.441406 257.238281 C 425.496094 257.289062 425.496094 257.367188 425.503906 257.433594 C 425.550781 258.347656 425.183594 258.585938 425.691406 259.292969 C 426.300781 260.257812 425.644531 259.945312 425.585938 260.207031 C 425.632812 260.398438 425.808594 260.515625 425.878906 260.695312 C 425.769531 260.964844 425.675781 261.242188 425.5625 261.511719 C 425.707031 261.421875 425.835938 261.3125 425.996094 261.253906 C 425.875 261.910156 425.976562 262.183594 425.921875 262.476562 C 425.921875 262.476562 425.597656 263.183594 425.492188 263.625 C 425.636719 263.402344 425.769531 263.164062 425.929688 262.949219 C 426.039062 263.554688 426.003906 263.503906 425.71875 264.40625 C 424.757812 264.132812 423.777344 264.394531 423.589844 265.675781 C 423.425781 267.128906 423.886719 270.554688 424.304688 272.027344 C 424.847656 273.941406 426.539062 276.121094 427.691406 279.375 C 427.917969 280.003906 428.523438 280.121094 429.175781 280.011719 C 429.296875 283.335938 427.808594 286.015625 431.625 291.015625 C 431.089844 301.433594 429.609375 305.445312 425.332031 308.480469 C 425.347656 308.300781 425.386719 308.125 425.433594 307.953125 C 424.949219 308.019531 423.679688 307.742188 423.25 308.015625 C 422.984375 308.1875 422.554688 308.859375 422.457031 309.207031 C 422.351562 309.546875 422.449219 309.601562 422.179688 309.667969 C 421.238281 309.855469 421.171875 309.476562 420.488281 309.566406 C 420.214844 309.605469 419.949219 309.695312 419.675781 309.730469 C 419.464844 309.761719 419.234375 309.792969 419.074219 309.953125 C 418.882812 310.148438 418.339844 310.9375 418.3125 311.414062 C 418.320312 311.628906 418.050781 311.609375 415.984375 312.429688 C 413.011719 313.582031 414.035156 312.96875 412.546875 313.828125 C 411.121094 314.671875 407.539062 317.027344 404.695312 317.527344 C 403.304688 317.792969 402.261719 317.582031 400.761719 318.585938 C 399.007812 319.773438 399.34375 319.957031 399.300781 320.25 C 399.210938 320.304688 399.105469 320.3125 399.007812 320.335938 C 398.535156 320.425781 398.101562 320.660156 397.707031 320.9375 C 393.738281 323.734375 392.292969 328.996094 391.246094 331.808594 C 389.613281 336.199219 390.148438 333.632812 389.570312 338.332031 C 389.046875 343.203125 389.019531 339.875 388.675781 348.179688 C 388.636719 349.222656 388.605469 350.269531 388.386719 351.292969 C 388.355469 351.417969 388.328125 351.550781 388.285156 351.675781 L 500.6875 356.449219 C 498.917969 350.242188 500.632812 350.75 500.726562 348.074219 Z M 500.726562 348.074219 " fill-opacity="1" fill-rule="nonzero"/></g></g></g><g clip-path="url(#96f657cd79)"><g clip-path="url(#c231271068)"><g clip-path="url(#a0e4e8d7a7)"><path fill="#ffffff" d="M 427.195312 353.597656 L 466.851562 355.28125 L 465.738281 381.503906 L 426.082031 379.820312 Z M 427.195312 353.597656 " fill-opacity="1" fill-rule="nonzero"/></g></g></g><g clip-path="url(#bd99808466)"><g clip-path="url(#140747540f)"><g clip-path="url(#4a41b86e03)"><path fill="#ffffff" d="M 389.445312 336.917969 L 501.125 341.660156 L 499.679688 375.648438 L 388 370.90625 Z M 389.445312 336.917969 " fill-opacity="1" fill-rule="nonzero"/></g></g></g><g clip-path="url(#5bf14b080b)"><g clip-path="url(#1529ed88b2)"><g clip-path="url(#eedacdbbae)"><path fill="#5271ff" d="M 442.785156 380.808594 C 391.695312 374.847656 354.984375 328.394531 360.949219 277.246094 C 366.917969 226.101562 413.332031 189.34375 464.425781 195.304688 C 515.519531 201.265625 552.226562 247.71875 546.257812 298.867188 C 540.292969 350.015625 493.871094 386.769531 442.785156 380.808594 Z M 462.644531 210.5625 C 461.378906 210.414062 460.109375 210.296875 458.835938 210.210938 C 457.5625 210.125 456.289062 210.070312 455.015625 210.046875 C 453.738281 210.027344 452.464844 210.035156 451.1875 210.074219 C 449.914062 210.113281 448.640625 210.183594 447.371094 210.289062 C 446.097656 210.390625 444.828125 210.523438 443.566406 210.6875 C 442.300781 210.851562 441.039062 211.050781 439.785156 211.277344 C 438.527344 211.503906 437.28125 211.761719 436.035156 212.046875 C 434.792969 212.335938 433.558594 212.65625 432.332031 213.003906 C 431.105469 213.351562 429.886719 213.730469 428.679688 214.140625 C 427.46875 214.546875 426.273438 214.988281 425.085938 215.453125 C 423.898438 215.921875 422.722656 216.417969 421.558594 216.941406 C 420.398438 217.46875 419.25 218.023438 418.113281 218.605469 C 416.976562 219.183594 415.855469 219.792969 414.75 220.429688 C 413.644531 221.066406 412.554688 221.730469 411.480469 222.421875 C 410.410156 223.113281 409.351562 223.828125 408.316406 224.570312 C 407.277344 225.3125 406.257812 226.082031 405.257812 226.871094 C 404.257812 227.664062 403.277344 228.480469 402.316406 229.320312 C 401.355469 230.164062 400.414062 231.027344 399.496094 231.914062 C 398.578125 232.800781 397.683594 233.707031 396.808594 234.636719 C 395.9375 235.570312 395.085938 236.519531 394.257812 237.492188 C 393.433594 238.464844 392.628906 239.457031 391.851562 240.46875 C 391.074219 241.480469 390.320312 242.511719 389.59375 243.558594 C 388.863281 244.609375 388.164062 245.675781 387.488281 246.757812 C 386.8125 247.84375 386.164062 248.941406 385.542969 250.054688 C 384.921875 251.171875 384.328125 252.300781 383.761719 253.445312 C 383.195312 254.589844 382.65625 255.746094 382.148438 256.917969 C 381.636719 258.089844 381.15625 259.273438 380.707031 260.464844 C 380.253906 261.660156 379.832031 262.867188 379.441406 264.082031 C 379.046875 265.296875 378.6875 266.519531 378.355469 267.753906 C 378.023438 268.984375 377.71875 270.226562 377.449219 271.472656 C 377.175781 272.722656 376.9375 273.972656 376.726562 275.234375 C 376.515625 276.492188 376.335938 277.757812 376.191406 279.027344 C 376.042969 280.292969 375.925781 281.566406 375.839844 282.839844 C 375.753906 284.113281 375.699219 285.386719 375.675781 286.664062 C 375.652344 287.941406 375.660156 289.21875 375.699219 290.496094 C 375.742188 291.769531 375.8125 293.046875 375.914062 294.316406 C 376.015625 295.589844 376.148438 296.859375 376.3125 298.125 C 376.476562 299.390625 376.671875 300.652344 376.898438 301.910156 C 377.125 303.167969 377.382812 304.417969 377.667969 305.660156 C 377.957031 306.90625 378.273438 308.140625 378.621094 309.371094 C 378.972656 310.597656 379.347656 311.816406 379.757812 313.027344 C 380.164062 314.238281 380.601562 315.433594 381.070312 316.625 C 381.535156 317.8125 382.03125 318.988281 382.554688 320.152344 C 383.082031 321.316406 383.632812 322.464844 384.214844 323.601562 C 384.792969 324.738281 385.402344 325.859375 386.039062 326.96875 C 386.675781 328.074219 387.335938 329.164062 388.027344 330.238281 C 388.714844 331.3125 389.429688 332.371094 390.171875 333.410156 C 390.914062 334.449219 391.679688 335.46875 392.472656 336.46875 C 393.261719 337.46875 394.078125 338.453125 394.917969 339.414062 C 395.757812 340.375 396.617188 341.3125 397.503906 342.234375 C 398.390625 343.152344 399.296875 344.046875 400.226562 344.921875 C 401.15625 345.796875 402.105469 346.648438 403.078125 347.476562 C 404.050781 348.304688 405.039062 349.105469 406.050781 349.882812 C 407.0625 350.664062 408.089844 351.417969 409.136719 352.144531 C 410.1875 352.875 411.25 353.574219 412.332031 354.25 C 413.414062 354.925781 414.511719 355.574219 415.625 356.199219 C 416.742188 356.820312 417.871094 357.414062 419.011719 357.980469 C 420.15625 358.546875 421.3125 359.085938 422.480469 359.59375 C 423.652344 360.105469 424.832031 360.585938 426.023438 361.035156 C 427.21875 361.488281 428.421875 361.910156 429.636719 362.300781 C 430.847656 362.695312 432.070312 363.058594 433.304688 363.390625 C 434.535156 363.722656 435.773438 364.023438 437.019531 364.292969 C 438.265625 364.566406 439.519531 364.808594 440.777344 365.015625 C 442.035156 365.226562 443.296875 365.40625 444.5625 365.554688 C 445.832031 365.699219 447.101562 365.816406 448.375 365.902344 C 449.644531 365.988281 450.921875 366.042969 452.195312 366.066406 C 453.472656 366.089844 454.746094 366.078125 456.019531 366.039062 C 457.296875 366 458.570312 365.929688 459.839844 365.824219 C 461.113281 365.722656 462.378906 365.589844 463.644531 365.425781 C 464.910156 365.261719 466.171875 365.066406 467.425781 364.839844 C 468.679688 364.609375 469.929688 364.355469 471.171875 364.066406 C 472.414062 363.777344 473.652344 363.460938 474.878906 363.109375 C 476.105469 362.761719 477.324219 362.382812 478.53125 361.972656 C 479.738281 361.566406 480.9375 361.128906 482.125 360.660156 C 483.3125 360.191406 484.488281 359.695312 485.648438 359.171875 C 486.8125 358.644531 487.960938 358.09375 489.097656 357.511719 C 490.234375 356.929688 491.355469 356.320312 492.460938 355.683594 C 493.566406 355.046875 494.65625 354.382812 495.726562 353.691406 C 496.800781 353 497.855469 352.285156 498.894531 351.542969 C 499.933594 350.800781 500.953125 350.035156 501.953125 349.242188 C 502.953125 348.449219 503.933594 347.632812 504.894531 346.792969 C 505.855469 345.953125 506.792969 345.089844 507.710938 344.203125 C 508.628906 343.316406 509.527344 342.40625 510.398438 341.476562 C 511.273438 340.542969 512.125 339.59375 512.949219 338.621094 C 513.777344 337.648438 514.582031 336.65625 515.359375 335.644531 C 516.136719 334.632812 516.890625 333.601562 517.617188 332.554688 C 518.34375 331.503906 519.046875 330.4375 519.722656 329.355469 C 520.398438 328.273438 521.046875 327.171875 521.667969 326.058594 C 522.289062 324.941406 522.882812 323.8125 523.449219 322.667969 C 524.015625 321.523438 524.554688 320.367188 525.0625 319.195312 C 525.570312 318.023438 526.050781 316.84375 526.503906 315.648438 C 526.953125 314.453125 527.375 313.25 527.769531 312.035156 C 528.160156 310.820312 528.523438 309.59375 528.855469 308.363281 C 529.1875 307.128906 529.488281 305.886719 529.761719 304.640625 C 530.03125 303.394531 530.273438 302.140625 530.484375 300.878906 C 530.691406 299.621094 530.871094 298.355469 531.019531 297.089844 C 531.167969 295.820312 531.28125 294.550781 531.367188 293.277344 C 531.449219 292.003906 531.503906 290.726562 531.523438 289.453125 C 531.546875 288.175781 531.535156 286.898438 531.496094 285.625 C 531.453125 284.347656 531.382812 283.074219 531.28125 281.800781 C 531.175781 280.53125 531.042969 279.261719 530.875 277.996094 C 530.710938 276.730469 530.515625 275.46875 530.289062 274.214844 C 530.0625 272.957031 529.804688 271.707031 529.515625 270.464844 C 529.226562 269.222656 528.90625 267.984375 528.558594 266.757812 C 528.210938 265.53125 527.832031 264.3125 527.421875 263.101562 C 527.015625 261.894531 526.578125 260.695312 526.109375 259.507812 C 525.640625 258.320312 525.144531 257.144531 524.621094 255.984375 C 524.097656 254.820312 523.542969 253.671875 522.960938 252.535156 C 522.382812 251.398438 521.773438 250.277344 521.136719 249.171875 C 520.5 248.066406 519.839844 246.976562 519.148438 245.902344 C 518.460938 244.828125 517.746094 243.773438 517.003906 242.734375 C 516.261719 241.695312 515.496094 240.675781 514.707031 239.675781 C 513.914062 238.671875 513.097656 237.691406 512.261719 236.730469 C 511.421875 235.769531 510.558594 234.832031 509.675781 233.914062 C 508.789062 232.996094 507.882812 232.097656 506.953125 231.222656 C 506.023438 230.351562 505.074219 229.5 504.105469 228.671875 C 503.132812 227.84375 502.144531 227.042969 501.132812 226.261719 C 500.121094 225.484375 499.09375 224.730469 498.046875 224 C 497 223.273438 495.9375 222.570312 494.855469 221.894531 C 493.773438 221.21875 492.675781 220.570312 491.5625 219.949219 C 490.449219 219.324219 489.324219 218.730469 488.179688 218.164062 C 487.039062 217.597656 485.882812 217.058594 484.714844 216.546875 C 483.546875 216.039062 482.363281 215.558594 481.171875 215.105469 C 479.980469 214.652344 478.777344 214.230469 477.566406 213.835938 C 476.351562 213.445312 475.128906 213.082031 473.898438 212.746094 C 472.667969 212.414062 471.429688 212.109375 470.183594 211.839844 C 468.9375 211.566406 467.6875 211.324219 466.429688 211.113281 C 465.171875 210.902344 463.910156 210.722656 462.644531 210.574219 Z M 462.644531 210.5625 " fill-opacity="1" fill-rule="nonzero"/></g></g></g><g clip-path="url(#d242cea3bd)"><g clip-path="url(#8535d11022)"><g clip-path="url(#d4c0c82c82)"><path fill="#5271ff" d="M 508.519531 398.640625 C 507.679688 398.542969 506.867188 398.324219 506.089844 397.984375 C 505.3125 397.644531 504.601562 397.203125 503.953125 396.652344 C 503.308594 396.101562 502.753906 395.472656 502.296875 394.757812 C 501.835938 394.042969 501.488281 393.277344 501.257812 392.460938 C 501.023438 391.648438 500.914062 390.8125 500.925781 389.964844 C 500.9375 389.117188 501.074219 388.285156 501.332031 387.476562 C 501.59375 386.667969 501.960938 385.914062 502.445312 385.214844 C 502.925781 384.515625 503.496094 383.902344 504.160156 383.375 L 530.535156 362.328125 C 530.96875 361.9375 531.4375 361.589844 531.941406 361.296875 C 532.449219 361 532.976562 360.757812 533.53125 360.570312 C 534.085938 360.382812 534.65625 360.253906 535.234375 360.179688 C 535.816406 360.109375 536.398438 360.097656 536.980469 360.144531 C 537.566406 360.191406 538.136719 360.296875 538.699219 360.460938 C 539.261719 360.625 539.800781 360.847656 540.316406 361.121094 C 540.832031 361.394531 541.316406 361.71875 541.769531 362.09375 C 542.21875 362.46875 542.625 362.882812 542.992188 363.339844 C 543.359375 363.796875 543.671875 364.289062 543.9375 364.808594 C 544.203125 365.332031 544.414062 365.875 544.570312 366.441406 C 544.726562 367.003906 544.820312 367.578125 544.859375 368.164062 C 544.894531 368.75 544.875 369.332031 544.792969 369.910156 C 544.710938 370.492188 544.570312 371.058594 544.375 371.609375 C 544.179688 372.160156 543.925781 372.6875 543.621094 373.1875 C 543.320312 373.6875 542.964844 374.152344 542.566406 374.582031 C 542.167969 375.007812 541.730469 375.394531 541.253906 375.730469 L 514.878906 396.777344 C 513.988281 397.5 512.988281 398.023438 511.886719 398.347656 C 510.785156 398.667969 509.664062 398.765625 508.519531 398.640625 Z M 508.519531 398.640625 " fill-opacity="1" fill-rule="nonzero"/></g></g></g><g clip-path="url(#95cb8b88a0)"><g clip-path="url(#34a54e0341)"><g clip-path="url(#d04855f682)"><path fill="#5271ff" d="M 601.570312 490.691406 C 599.601562 490.46875 597.75 489.867188 596.023438 488.890625 C 594.296875 487.914062 592.828125 486.640625 591.617188 485.066406 L 536.34375 413.378906 C 535.75 412.609375 535.238281 411.792969 534.808594 410.925781 C 534.378906 410.058594 534.039062 409.160156 533.785156 408.226562 C 533.53125 407.289062 533.371094 406.339844 533.304688 405.375 C 533.238281 404.40625 533.269531 403.445312 533.390625 402.484375 C 533.515625 401.523438 533.730469 400.585938 534.039062 399.667969 C 534.347656 398.75 534.742188 397.871094 535.222656 397.03125 C 535.703125 396.191406 536.261719 395.40625 536.898438 394.675781 C 537.53125 393.945312 538.234375 393.285156 539 392.691406 C 539.765625 392.101562 540.582031 391.589844 541.445312 391.15625 C 542.3125 390.726562 543.214844 390.382812 544.148438 390.128906 C 545.082031 389.875 546.03125 389.714844 546.996094 389.648438 C 547.960938 389.582031 548.921875 389.613281 549.882812 389.734375 C 550.839844 389.859375 551.777344 390.074219 552.695312 390.382812 C 553.613281 390.691406 554.492188 391.085938 555.328125 391.566406 C 556.167969 392.046875 556.953125 392.605469 557.683594 393.242188 C 558.410156 393.878906 559.070312 394.582031 559.664062 395.347656 L 614.941406 467.035156 C 615.378906 467.605469 615.777344 468.207031 616.128906 468.835938 C 616.480469 469.464844 616.785156 470.117188 617.042969 470.792969 C 617.300781 471.464844 617.503906 472.15625 617.660156 472.859375 C 617.816406 473.5625 617.921875 474.273438 617.972656 474.996094 C 618.023438 475.714844 618.023438 476.433594 617.96875 477.152344 C 617.914062 477.871094 617.808594 478.585938 617.648438 479.289062 C 617.488281 479.992188 617.28125 480.679688 617.023438 481.355469 C 616.761719 482.027344 616.453125 482.675781 616.101562 483.304688 C 615.746094 483.933594 615.347656 484.53125 614.902344 485.101562 C 614.460938 485.671875 613.980469 486.203125 613.457031 486.703125 C 612.9375 487.203125 612.382812 487.660156 611.792969 488.078125 C 611.207031 488.496094 610.589844 488.867188 609.949219 489.191406 C 609.304688 489.519531 608.644531 489.796875 607.960938 490.027344 C 607.277344 490.257812 606.578125 490.433594 605.871094 490.5625 C 605.160156 490.6875 604.445312 490.761719 603.726562 490.785156 C 603.003906 490.808594 602.285156 490.777344 601.570312 490.691406 Z M 601.570312 490.691406 " fill-opacity="1" fill-rule="nonzero"/></g></g></g><g clip-path="url(#92262f5c33)"><g clip-path="url(#2ab802110e)"><g clip-path="url(#463ed760c1)"><path fill="#5271ff" d="M 445.832031 353.367188 C 433.894531 351.976562 418.519531 346.710938 403.152344 331.738281 C 389.65625 318.597656 384.871094 300.246094 389.304688 278.675781 C 391.394531 268.703125 394.921875 259.273438 399.890625 250.382812 C 400.046875 250.125 400.226562 249.882812 400.425781 249.660156 C 400.628906 249.4375 400.851562 249.238281 401.09375 249.058594 C 401.335938 248.878906 401.59375 248.722656 401.867188 248.59375 C 402.140625 248.464844 402.421875 248.367188 402.714844 248.292969 C 403.003906 248.21875 403.300781 248.175781 403.601562 248.160156 C 403.902344 248.144531 404.203125 248.160156 404.5 248.203125 C 404.796875 248.246094 405.089844 248.320312 405.375 248.417969 C 405.65625 248.519531 405.929688 248.648438 406.1875 248.800781 C 406.445312 248.957031 406.6875 249.132812 406.910156 249.335938 C 407.132812 249.539062 407.335938 249.757812 407.515625 250 C 407.699219 250.242188 407.851562 250.5 407.984375 250.769531 C 408.113281 251.042969 408.214844 251.324219 408.289062 251.617188 C 408.363281 251.910156 408.410156 252.203125 408.425781 252.507812 C 408.445312 252.808594 408.429688 253.105469 408.390625 253.40625 C 408.347656 253.703125 408.277344 253.996094 408.175781 254.28125 C 408.078125 254.5625 407.953125 254.835938 407.796875 255.097656 C 403.339844 263.171875 400.167969 271.722656 398.273438 280.75 C 394.535156 299.238281 398.339844 314.15625 409.570312 325.113281 C 437.3125 352.152344 464.785156 343.058594 465.0625 342.964844 C 465.347656 342.855469 465.644531 342.78125 465.945312 342.734375 C 466.25 342.683594 466.554688 342.667969 466.859375 342.679688 C 467.164062 342.695312 467.46875 342.738281 467.765625 342.8125 C 468.0625 342.886719 468.347656 342.988281 468.625 343.121094 C 468.902344 343.25 469.164062 343.40625 469.410156 343.589844 C 469.65625 343.773438 469.878906 343.980469 470.085938 344.207031 C 470.289062 344.4375 470.46875 344.683594 470.625 344.949219 C 470.78125 345.210938 470.90625 345.488281 471.007812 345.777344 C 471.105469 346.066406 471.179688 346.363281 471.21875 346.667969 C 471.257812 346.972656 471.269531 347.277344 471.25 347.582031 C 471.230469 347.890625 471.179688 348.191406 471.101562 348.488281 C 471.019531 348.78125 470.910156 349.066406 470.773438 349.34375 C 470.636719 349.617188 470.476562 349.875 470.289062 350.117188 C 470.097656 350.359375 469.886719 350.578125 469.65625 350.777344 C 469.421875 350.980469 469.175781 351.152344 468.90625 351.304688 C 468.640625 351.453125 468.359375 351.574219 468.070312 351.667969 C 467.378906 351.929688 458.566406 354.855469 445.832031 353.367188 Z M 445.832031 353.367188 " fill-opacity="1" fill-rule="nonzero"/></g></g></g></svg>