<svg width="88" height="36" viewBox="0 0 88 36" fill="none" xmlns="http://www.w3.org/2000/svg">
<rect width="88" height="36" rx="4" fill="#5271FF"/>
<path d="M20.333 20.4365C20.333 20.2314 20.3011 20.0492 20.2373 19.8896C20.1781 19.7301 20.071 19.5843 19.916 19.4521C19.7611 19.32 19.5423 19.1924 19.2598 19.0693C18.9818 18.9417 18.6263 18.8118 18.1934 18.6797C17.7194 18.5339 17.2819 18.3721 16.8809 18.1943C16.4844 18.012 16.138 17.8024 15.8418 17.5654C15.5456 17.3239 15.3154 17.0482 15.1514 16.7383C14.9873 16.4238 14.9053 16.0615 14.9053 15.6514C14.9053 15.2458 14.9896 14.8766 15.1582 14.5439C15.3314 14.2113 15.5752 13.9242 15.8896 13.6826C16.2087 13.4365 16.5846 13.2474 17.0176 13.1152C17.4505 12.9785 17.929 12.9102 18.4531 12.9102C19.1914 12.9102 19.8271 13.0469 20.3604 13.3203C20.8981 13.5938 21.3105 13.9606 21.5977 14.4209C21.8893 14.8812 22.0352 15.3893 22.0352 15.9453H20.333C20.333 15.6172 20.2624 15.3278 20.1211 15.0771C19.9844 14.8219 19.7747 14.6214 19.4922 14.4756C19.2142 14.3298 18.861 14.2568 18.4326 14.2568C18.027 14.2568 17.6898 14.3184 17.4209 14.4414C17.152 14.5645 16.9515 14.7308 16.8193 14.9404C16.6872 15.1501 16.6211 15.387 16.6211 15.6514C16.6211 15.8382 16.6644 16.0091 16.751 16.1641C16.8376 16.3145 16.9697 16.4557 17.1475 16.5879C17.3252 16.7155 17.5485 16.8363 17.8174 16.9502C18.0863 17.0641 18.403 17.1735 18.7676 17.2783C19.319 17.4424 19.7998 17.6247 20.21 17.8252C20.6201 18.0212 20.9619 18.2445 21.2354 18.4951C21.5088 18.7458 21.7139 19.0306 21.8506 19.3496C21.9873 19.6641 22.0557 20.0218 22.0557 20.4229C22.0557 20.8421 21.9714 21.2204 21.8027 21.5576C21.6341 21.8903 21.3926 22.1751 21.0781 22.4121C20.7682 22.6445 20.3945 22.8245 19.957 22.9521C19.5241 23.0752 19.041 23.1367 18.5078 23.1367C18.0293 23.1367 17.5576 23.0729 17.0928 22.9453C16.6325 22.8177 16.2132 22.624 15.835 22.3643C15.4567 22.0999 15.1559 21.7718 14.9326 21.3799C14.7093 20.9834 14.5977 20.5208 14.5977 19.9922H16.3135C16.3135 20.3158 16.3682 20.5915 16.4775 20.8193C16.5915 21.0472 16.7487 21.234 16.9492 21.3799C17.1497 21.5212 17.3822 21.626 17.6465 21.6943C17.9154 21.7627 18.2025 21.7969 18.5078 21.7969C18.9089 21.7969 19.2438 21.7399 19.5127 21.626C19.7861 21.512 19.9912 21.3525 20.1279 21.1475C20.2646 20.9424 20.333 20.7054 20.333 20.4365ZM31.3379 21.6396V23H26.0537V21.6396H31.3379ZM26.5391 13.0469V23H24.8232V13.0469H26.5391ZM30.6475 17.2031V18.543H26.0537V17.2031H30.6475ZM31.3037 13.0469V14.4141H26.0537V13.0469H31.3037ZM37.8652 14.373L34.8916 23H33.0938L36.8398 13.0469H37.9883L37.8652 14.373ZM40.3535 23L37.373 14.373L37.2432 13.0469H38.3984L42.1582 23H40.3535ZM40.21 19.3086V20.6689H34.7959V19.3086H40.21ZM44.5225 13.0469H48.043C48.7995 13.0469 49.4443 13.1608 49.9775 13.3887C50.5107 13.6165 50.9186 13.9538 51.2012 14.4004C51.4883 14.8424 51.6318 15.3893 51.6318 16.041C51.6318 16.5378 51.5407 16.9753 51.3584 17.3535C51.1761 17.7318 50.9186 18.0508 50.5859 18.3105C50.2533 18.5658 49.8568 18.764 49.3965 18.9053L48.877 19.1582H45.7119L45.6982 17.7979H48.0703C48.4805 17.7979 48.8223 17.7249 49.0957 17.5791C49.3691 17.4333 49.5742 17.235 49.7109 16.9844C49.8522 16.7292 49.9229 16.4421 49.9229 16.123C49.9229 15.7767 49.8545 15.4759 49.7178 15.2207C49.5856 14.9609 49.3805 14.7627 49.1025 14.626C48.8245 14.4847 48.4714 14.4141 48.043 14.4141H46.2383V23H44.5225V13.0469ZM50.2031 23L47.8652 18.5293L49.6631 18.5225L52.0352 22.9111V23H50.2031ZM60.4697 19.7598H62.1787C62.124 20.4115 61.9417 20.9925 61.6318 21.5029C61.3219 22.0088 60.8867 22.4076 60.3262 22.6992C59.7656 22.9909 59.0843 23.1367 58.2822 23.1367C57.667 23.1367 57.1133 23.0273 56.6211 22.8086C56.1289 22.5853 55.7074 22.2708 55.3564 21.8652C55.0055 21.4551 54.7367 20.9606 54.5498 20.3818C54.3675 19.8031 54.2764 19.1559 54.2764 18.4404V17.6133C54.2764 16.8978 54.3698 16.2507 54.5566 15.6719C54.748 15.0931 55.0215 14.5986 55.377 14.1885C55.7324 13.7738 56.1585 13.457 56.6553 13.2383C57.1566 13.0195 57.7194 12.9102 58.3438 12.9102C59.1367 12.9102 59.8066 13.056 60.3535 13.3477C60.9004 13.6393 61.3242 14.0426 61.625 14.5576C61.9303 15.0726 62.1172 15.6628 62.1855 16.3281H60.4766C60.431 15.8997 60.3307 15.5329 60.1758 15.2275C60.0254 14.9222 59.8021 14.6898 59.5059 14.5303C59.2096 14.3662 58.8223 14.2842 58.3438 14.2842C57.9518 14.2842 57.61 14.3571 57.3184 14.5029C57.0267 14.6488 56.7829 14.863 56.5869 15.1455C56.391 15.4281 56.2428 15.7767 56.1426 16.1914C56.0469 16.6016 55.999 17.071 55.999 17.5996V18.4404C55.999 18.9417 56.0423 19.3975 56.1289 19.8076C56.2201 20.2132 56.3568 20.5618 56.5391 20.8535C56.7259 21.1452 56.9629 21.3708 57.25 21.5303C57.5371 21.6898 57.8812 21.7695 58.2822 21.7695C58.7699 21.7695 59.1641 21.6921 59.4648 21.5371C59.7702 21.3822 60.0003 21.1566 60.1553 20.8604C60.3148 20.5596 60.4196 20.1927 60.4697 19.7598ZM71.5635 17.2031V18.5635H66.2793V17.2031H71.5635ZM66.7031 13.0469V23H64.9873V13.0469H66.7031ZM72.8828 13.0469V23H71.1738V13.0469H72.8828Z" fill="white"/>
</svg>
