<svg width="32" height="40" viewBox="0 0 32 40" fill="none" xmlns="http://www.w3.org/2000/svg">
<path d="M24.6713 5.52301H30.2098C31.2168 5.52301 32 6.30404 32 7.30823V8.59135C32 9.42817 31.3846 10.2092 30.6014 10.3766V36.8759C30.6014 38.6053 29.1469 40 27.3566 40H4.64336C2.85315 40 1.45455 38.6053 1.45455 36.8759V10.3766C0.671329 10.2092 0 9.42817 0 8.59135V7.30823C0 6.30404 0.839161 5.52301 1.84615 5.52301H7.32867V3.17992C7.32867 1.45049 8.72727 0 10.5175 0H21.4825C23.2727 0 24.6713 1.45049 24.6713 3.17992V5.52301ZM21.4825 2.7894H10.5175C10.2378 2.7894 10.0699 2.95676 10.0699 3.17992V5.52301H21.9301V3.17992C21.9301 2.95676 21.7622 2.7894 21.4825 2.7894ZM5.53846 36.4296H26.5175C26.7413 36.4296 26.9091 36.1506 26.9091 35.9275V10.4324H5.09091V35.9275C5.09091 36.1506 5.25874 36.4296 5.53846 36.4296ZM9.84615 34.3654H9.51049C8.5035 34.3654 7.66434 33.5286 7.66434 32.5244V14.2817C7.66434 13.3333 8.5035 12.5523 9.51049 12.5523H9.84615C10.7972 12.5523 11.6364 13.3333 11.6364 14.2817V32.5244C11.6364 33.5286 10.7972 34.3654 9.84615 34.3654ZM16.1678 34.3654H15.8881C14.8811 34.3654 14.042 33.5286 14.042 32.5244V14.2817C14.042 13.3333 14.8811 12.5523 15.8881 12.5523H16.1678C17.1748 12.5523 18.014 13.3333 18.014 14.2817V32.5244C18.014 33.5286 17.1748 34.3654 16.1678 34.3654ZM22.4895 34.3654H22.2098C21.2028 34.3654 20.4196 33.5286 20.4196 32.5244V14.2817C20.4196 13.3333 21.2028 12.5523 22.2098 12.5523H22.4895C23.4965 12.5523 24.3357 13.3333 24.3357 14.2817V32.5244C24.3357 33.5286 23.4965 34.3654 22.4895 34.3654Z" fill="#E2E8F0"/>
</svg>
