<svg width="17" height="16" viewBox="0 0 17 16" fill="none" xmlns="http://www.w3.org/2000/svg">
<path d="M8.49999 8.49992C6.38666 8.49992 4.66666 6.77992 4.66666 4.66659C4.66666 2.55325 6.38666 0.833252 8.49999 0.833252C10.6133 0.833252 12.3333 2.55325 12.3333 4.66659C12.3333 6.77992 10.6133 8.49992 8.49999 8.49992ZM8.49999 1.83325C6.93999 1.83325 5.66666 3.10659 5.66666 4.66659C5.66666 6.22658 6.93999 7.49992 8.49999 7.49992C10.06 7.49992 11.3333 6.22658 11.3333 4.66659C11.3333 3.10659 10.06 1.83325 8.49999 1.83325Z" fill="white"/>
<path d="M14.2268 15.1667C13.9534 15.1667 13.7268 14.94 13.7268 14.6667C13.7268 12.3667 11.3801 10.5 8.5001 10.5C5.6201 10.5 3.27344 12.3667 3.27344 14.6667C3.27344 14.94 3.04677 15.1667 2.77344 15.1667C2.5001 15.1667 2.27344 14.94 2.27344 14.6667C2.27344 11.82 5.06677 9.5 8.5001 9.5C11.9334 9.5 14.7268 11.82 14.7268 14.6667C14.7268 14.94 14.5001 15.1667 14.2268 15.1667Z" fill="white"/>
</svg>
